<svg width="24" height="24" viewBox="0 0 24 24" fill="none" xmlns="http://www.w3.org/2000/svg">
<path fill-rule="evenodd" clip-rule="evenodd" d="M11 4C10.606 4 10.2159 4.0776 9.85195 4.22836C9.48797 4.37913 9.15726 4.6001 8.87868 4.87868C8.6001 5.15726 8.37913 5.48797 8.22836 5.85195C8.0776 6.21593 8 6.60603 8 7C8 7.39397 8.0776 7.78407 8.22836 8.14805C8.37913 8.51203 8.6001 8.84274 8.87868 9.12132C9.15726 9.3999 9.48797 9.62087 9.85195 9.77164C10.2159 9.9224 10.606 10 11 10C11.7956 10 12.5587 9.68393 13.1213 9.12132C13.6839 8.55871 14 7.79565 14 7C14 6.20435 13.6839 5.44129 13.1213 4.87868C12.5587 4.31607 11.7956 4 11 4ZM6 7C6 5.67392 6.52678 4.40215 7.46447 3.46447C8.40215 2.52678 9.67392 2 11 2C12.3261 2 13.5979 2.52678 14.5355 3.46447C15.4732 4.40215 16 5.67392 16 7C16 8.32608 15.4732 9.59785 14.5355 10.5355C13.5979 11.4732 12.3261 12 11 12C9.67392 12 8.40215 11.4732 7.46447 10.5355C6.52678 9.59785 6 8.32608 6 7ZM4.413 17.601C4.09 18.011 4 18.321 4 18.5C4 18.622 4.037 18.751 4.255 18.926C4.504 19.126 4.937 19.333 5.599 19.508C6.917 19.858 8.811 20 11 20C11.222 20 11.4413 19.9983 11.658 19.995C11.9232 19.9914 12.179 20.0933 12.3691 20.2783C12.5591 20.4634 12.6679 20.7163 12.6715 20.9815C12.6751 21.2467 12.5732 21.5025 12.3882 21.6926C12.2031 21.8826 11.9502 21.9914 11.685 21.995C11.4583 21.9983 11.23 22 11 22C8.771 22 6.665 21.86 5.087 21.442C4.302 21.234 3.563 20.936 3.003 20.486C2.41 20.01 2 19.345 2 18.5C2 17.713 2.358 16.977 2.844 16.361C3.338 15.736 4.021 15.161 4.822 14.671C6.425 13.695 8.605 13 11 13C11.4473 13 11.886 13.0233 12.316 13.07C12.5798 13.098 12.8216 13.2296 12.9883 13.4359C13.155 13.6422 13.233 13.9062 13.205 14.17C13.177 14.4338 13.0454 14.6756 12.8391 14.8423C12.6328 15.009 12.3688 15.087 12.105 15.059C11.7443 15.0197 11.376 15 11 15C8.977 15 7.157 15.59 5.864 16.379C5.217 16.773 4.728 17.201 4.413 17.601ZM18.316 14.051C18.1109 13.9827 17.8891 13.9827 17.684 14.051L14.684 15.051C14.4848 15.1173 14.3115 15.2447 14.1888 15.415C14.066 15.5854 13.9999 15.79 14 16V17.671C13.9999 18.7406 14.3942 19.7727 15.1075 20.5698C15.8207 21.3668 16.8029 21.8729 17.866 21.991C17.956 22.001 18.0453 22.001 18.134 21.991C19.1971 21.8729 20.1793 21.3668 20.8925 20.5698C21.6058 19.7727 22.0001 18.7406 22 17.671V16C22.0001 15.79 21.934 15.5854 21.8112 15.415C21.6885 15.2447 21.5152 15.1173 21.316 15.051L18.316 14.051ZM16 17.671V16.721L18 16.054L20 16.721V17.671C20 18.838 19.145 19.821 18 19.992C17.444 19.9091 16.9362 19.6293 16.5691 19.2035C16.202 18.7776 16.0001 18.2342 16 17.672V17.671Z" fill="#383639"/>
</svg>
