<svg width="24" height="24" viewBox="0 0 24 24" fill="none" xmlns="http://www.w3.org/2000/svg">
<path d="M11.11 4.04876C11.3736 4.01958 11.6149 3.88688 11.7806 3.67984C11.9464 3.4728 12.0232 3.20838 11.994 2.94476C11.9648 2.68113 11.8321 2.4399 11.6251 2.27411C11.418 2.10833 11.1536 2.03159 10.89 2.06076C5.888 2.61376 2 6.85176 2 11.9998C2 17.5228 6.477 21.9998 12 21.9998C17.146 21.9998 21.383 18.1128 21.939 13.1148C21.9683 12.8511 21.8917 12.5867 21.726 12.3795C21.5603 12.1724 21.3191 12.0396 21.0555 12.0103C20.7919 11.981 20.5274 12.0576 20.3203 12.2233C20.1131 12.3889 19.9803 12.6301 19.951 12.8938C19.7207 14.9239 18.7225 16.7889 17.161 18.1066C15.5996 19.4243 13.5932 20.0946 11.5533 19.9803C9.51335 19.866 7.59445 18.9756 6.19001 17.4917C4.78558 16.0078 4.00202 14.0429 4 11.9998C3.99984 10.032 4.7249 8.13324 6.03656 6.66643C7.34822 5.19961 9.15447 4.26767 11.11 4.04876ZM14.767 2.39076C14.5143 2.32699 14.2466 2.36443 14.0211 2.49509C13.7955 2.62575 13.6299 2.83931 13.5595 3.09028C13.4891 3.34125 13.5195 3.60979 13.6442 3.83869C13.7688 4.06759 13.978 4.23877 14.227 4.31576C14.515 4.39709 14.7957 4.49376 15.069 4.60576C15.3146 4.70614 15.59 4.70486 15.8346 4.60218C16.0793 4.4995 16.2731 4.30385 16.3735 4.05826C16.4739 3.81267 16.4726 3.53726 16.3699 3.29262C16.2672 3.04798 16.0716 2.85414 15.826 2.75376C15.4801 2.61308 15.1265 2.49189 14.767 2.39076ZM17.349 4.69076C17.4378 4.59404 17.5449 4.51576 17.6639 4.4604C17.783 4.40503 17.9119 4.37367 18.0431 4.3681C18.1743 4.36253 18.3053 4.38286 18.4287 4.42792C18.552 4.47299 18.6653 4.54191 18.762 4.63076C18.974 4.82476 19.177 5.02743 19.371 5.23876C19.5503 5.43422 19.6446 5.6929 19.6331 5.95789C19.6217 6.22288 19.5055 6.47247 19.31 6.65176C19.1145 6.83105 18.8559 6.92534 18.5909 6.9139C18.3259 6.90246 18.0763 6.78622 17.897 6.59076C17.742 6.42187 17.5799 6.25972 17.411 6.10476C17.3141 6.01606 17.2357 5.90915 17.1802 5.79013C17.1246 5.67111 17.0931 5.54231 17.0873 5.4111C17.0816 5.27989 17.1017 5.14883 17.1466 5.0254C17.1915 4.90197 17.2603 4.7876 17.349 4.69076ZM11 5.99976C11.2652 5.99976 11.5196 6.10512 11.7071 6.29265C11.8946 6.48019 12 6.73454 12 6.99976V11.9998H15C15.2652 11.9998 15.5196 12.1051 15.7071 12.2927C15.8946 12.4802 16 12.7345 16 12.9998C16 13.265 15.8946 13.5193 15.7071 13.7069C15.5196 13.8944 15.2652 13.9998 15 13.9998H11C10.7348 13.9998 10.4804 13.8944 10.2929 13.7069C10.1054 13.5193 10 13.265 10 12.9998V6.99976C10 6.73454 10.1054 6.48019 10.2929 6.29265C10.4804 6.10512 10.7348 5.99976 11 5.99976ZM19.94 7.62276C20.1855 7.5224 20.4607 7.52365 20.7053 7.62623C20.9498 7.72881 21.1436 7.92432 21.244 8.16976C21.3855 8.51697 21.5074 8.87186 21.609 9.23276C21.6484 9.36034 21.6619 9.49453 21.6487 9.62741C21.6354 9.76029 21.5957 9.88916 21.5318 10.0064C21.4679 10.1237 21.3812 10.227 21.2768 10.3102C21.1723 10.3934 21.0523 10.4549 20.9237 10.491C20.7951 10.527 20.6606 10.537 20.5282 10.5202C20.3957 10.5035 20.2679 10.4603 20.1523 10.3934C20.0368 10.3265 19.9358 10.2371 19.8554 10.1305C19.7749 10.0239 19.7167 9.90224 19.684 9.77276C19.6029 9.48555 19.5057 9.20311 19.393 8.92676C19.2926 8.68142 19.2937 8.40626 19.3961 8.16174C19.4985 7.91722 19.6937 7.72335 19.939 7.62276" fill="#383639"/>
</svg>
