<svg width="22" height="22" viewBox="0 0 22 22" fill="none" xmlns="http://www.w3.org/2000/svg">
<path d="M15.2341 0C15.2853 0 15.3365 0 15.3906 0C15.5162 1.55149 14.924 2.71075 14.2043 3.55026C13.4981 4.38396 12.5311 5.19255 10.967 5.06986C10.8627 3.5406 11.4559 2.46731 12.1746 1.62974C12.8412 0.849163 14.0632 0.154569 15.2341 0Z" fill="black"/>
<path d="M19.9685 16.1486C19.9685 16.164 19.9685 16.1775 19.9685 16.192C19.529 17.5233 18.902 18.6642 18.1369 19.723C17.4384 20.6842 16.5825 21.9777 15.0542 21.9777C13.7336 21.9777 12.8564 21.1286 11.503 21.1054C10.0713 21.0822 9.28393 21.8154 7.97493 22C7.82519 22 7.67545 22 7.52861 22C6.56738 21.8608 5.79164 21.0996 5.2265 20.4137C3.56005 18.3869 2.2723 15.7689 2.03271 12.4186C2.03271 12.0902 2.03271 11.7627 2.03271 11.4342C2.13415 9.03645 3.29921 7.08695 4.8478 6.14214C5.66509 5.63979 6.78861 5.21183 8.03965 5.40311C8.57581 5.48619 9.12357 5.66974 9.6037 5.85136C10.0587 6.02622 10.6277 6.33632 11.1668 6.3199C11.5319 6.30927 11.8952 6.11896 12.2633 5.98468C13.3414 5.59536 14.3982 5.14904 15.7913 5.35867C17.4655 5.61178 18.6537 6.35564 19.3879 7.50332C17.9717 8.40465 16.852 9.76292 17.0433 12.0824C17.2133 14.1894 18.4383 15.4221 19.9685 16.1486Z" fill="black"/>
</svg>
