<svg width="18" height="22" viewBox="0 0 18 22" fill="none" xmlns="http://www.w3.org/2000/svg">
<path d="M13.2331 0C13.2843 0 13.3355 0 13.3896 0C13.5152 1.55149 12.923 2.71075 12.2033 3.55026C11.4971 4.38396 10.5301 5.19255 8.96606 5.06986C8.86172 3.5406 9.45488 2.46731 10.1736 1.62974C10.8402 0.849163 12.0623 0.154569 13.2331 0Z" fill="black"/>
<path d="M17.968 16.1487C17.968 16.1641 17.968 16.1777 17.968 16.1921C17.5285 17.5234 16.9015 18.6643 16.1364 19.7231C15.4379 20.6843 14.582 21.9779 13.0537 21.9779C11.7331 21.9779 10.8559 21.1287 9.50248 21.1055C8.07078 21.0823 7.28344 21.8156 5.97444 22.0001C5.8247 22.0001 5.67496 22.0001 5.52812 22.0001C4.5669 21.861 3.79115 21.0997 3.22601 20.4138C1.55956 18.387 0.271809 15.769 0.0322266 12.4187C0.0322266 12.0903 0.0322266 11.7628 0.0322266 11.4343C0.133662 9.03657 1.29873 7.08707 2.84731 6.14227C3.6646 5.63992 4.78812 5.21195 6.03916 5.40323C6.57533 5.48631 7.12308 5.66986 7.60321 5.85148C8.05822 6.02634 8.62723 6.33644 9.16629 6.32002C9.53146 6.30939 9.8947 6.11908 10.2628 5.9848C11.3409 5.59548 12.3977 5.14916 13.7908 5.35879C15.465 5.6119 16.6532 6.35576 17.3874 7.50344C15.9712 8.40477 14.8515 9.76305 15.0428 12.0825C15.2128 14.1895 16.4378 15.4222 17.968 16.1487Z" fill="black"/>
</svg>
