<svg width="20" height="23" viewBox="0 0 20 23" fill="none" xmlns="http://www.w3.org/2000/svg">
<path d="M7.35395 20.5C8.05906 21.1224 8.98536 21.5 9.99976 21.5C11.0143 21.5 11.9405 21.1224 12.6456 20.5M15.9998 7.5C15.9998 5.9087 15.3677 4.38258 14.2425 3.25736C13.1172 2.13214 11.5911 1.5 9.99976 1.5C8.40846 1.5 6.88236 2.13214 5.75714 3.25736C4.63192 4.38258 3.99978 5.9087 3.99978 7.5C3.99978 10.5902 3.22025 12.706 2.34944 14.1054C1.61491 15.2859 1.24764 15.8761 1.2611 16.0408C1.27602 16.2231 1.31464 16.2926 1.46155 16.4016C1.59424 16.5 2.19237 16.5 3.38863 16.5H16.611C17.8072 16.5 18.4054 16.5 18.538 16.4016C18.685 16.2926 18.7236 16.2231 18.7385 16.0408C18.752 15.8761 18.3847 15.2859 17.6502 14.1054C16.7793 12.706 15.9998 10.5902 15.9998 7.5Z" stroke="white" stroke-width="1.5" stroke-linecap="round" stroke-linejoin="round"/>
</svg>
