<svg width="20" height="20" viewBox="0 0 20 20" fill="none" xmlns="http://www.w3.org/2000/svg">
<path d="M3.09167 4.5H15.77C16.9183 4.5 17.7475 5.55833 17.4325 6.62333L16.0542 11.29C15.8417 12.0067 15.1633 12.5 14.3917 12.5H6.76C5.9875 12.5 5.30833 12.0058 5.09667 11.29L3.09167 4.5ZM3.09167 4.5L2.5 2.5M13.75 17.5C14.0815 17.5 14.3995 17.3683 14.6339 17.1339C14.8683 16.8995 15 16.5815 15 16.25C15 15.9185 14.8683 15.6005 14.6339 15.3661C14.3995 15.1317 14.0815 15 13.75 15C13.4185 15 13.1005 15.1317 12.8661 15.3661C12.6317 15.6005 12.5 15.9185 12.5 16.25C12.5 16.5815 12.6317 16.8995 12.8661 17.1339C13.1005 17.3683 13.4185 17.5 13.75 17.5ZM7.08333 17.5C7.41485 17.5 7.7328 17.3683 7.96722 17.1339C8.20164 16.8995 8.33333 16.5815 8.33333 16.25C8.33333 15.9185 8.20164 15.6005 7.96722 15.3661C7.7328 15.1317 7.41485 15 7.08333 15C6.75181 15 6.43387 15.1317 6.19945 15.3661C5.96503 15.6005 5.83333 15.9185 5.83333 16.25C5.83333 16.5815 5.96503 16.8995 6.19945 17.1339C6.43387 17.3683 6.75181 17.5 7.08333 17.5Z" stroke="#383639" stroke-width="1.5" stroke-linecap="round" stroke-linejoin="round"/>
</svg>
