<svg width="28" height="24" viewBox="0 0 28 24" fill="none" xmlns="http://www.w3.org/2000/svg">
<path d="M15 11L14 20" stroke="white" stroke-width="1.5" stroke-linecap="round" stroke-linejoin="round"/>
<path d="M19 11L15 4" stroke="white" stroke-width="1.5" stroke-linecap="round" stroke-linejoin="round"/>
<path d="M2 11H22" stroke="white" stroke-width="1.5" stroke-linecap="round" stroke-linejoin="round"/>
<path d="M3.5 11L5.1 18.4C5.1935 18.8586 5.44485 19.2698 5.81028 19.5621C6.17572 19.8545 6.63211 20.0094 7.1 20H16.9C17.3679 20.0094 17.8243 19.8545 18.1897 19.5621C18.5552 19.2698 18.8065 18.8586 18.9 18.4L20.6 11" stroke="white" stroke-width="1.5" stroke-linecap="round" stroke-linejoin="round"/>
<path d="M4.5 15.5H19.5" stroke="white" stroke-width="1.5" stroke-linecap="round" stroke-linejoin="round"/>
<path d="M5 11L9 4" stroke="white" stroke-width="1.5" stroke-linecap="round" stroke-linejoin="round"/>
<path d="M9 11L10 20" stroke="white" stroke-width="1.5" stroke-linecap="round" stroke-linejoin="round"/>
<circle cx="22" cy="11" r="5" fill="#E34149" stroke="#19101A"/>
<path d="M21.81 13V12.195H20.195V11.81L21.775 9.5H22.285V11.76H22.97V12.195H22.285V13H21.81ZM20.735 11.76H21.81V10.185L20.735 11.76Z" fill="#19101A"/>
</svg>
