<svg width="21" height="21" viewBox="0 0 21 21" fill="none" xmlns="http://www.w3.org/2000/svg">
<path d="M5.5 6.77051H10.5M5.5 10.2705H13.5M5.5 16.2705V18.606C5.5 19.1389 5.5 19.4053 5.60923 19.5421C5.70422 19.6611 5.84827 19.7304 6.00054 19.7302C6.17563 19.73 6.38367 19.5636 6.79976 19.2307L9.1852 17.3223C9.6725 16.9325 9.9162 16.7376 10.1875 16.599C10.4282 16.476 10.6844 16.3861 10.9492 16.3318C11.2477 16.2705 11.5597 16.2705 12.1837 16.2705H14.7C16.3802 16.2705 17.2202 16.2705 17.862 15.9435C18.4265 15.6559 18.8854 15.197 19.173 14.6325C19.5 13.9907 19.5 13.1507 19.5 11.4705V6.07051C19.5 4.39035 19.5 3.55027 19.173 2.90854C18.8854 2.34405 18.4265 1.88511 17.862 1.59749C17.2202 1.27051 16.3802 1.27051 14.7 1.27051H6.3C4.61984 1.27051 3.77976 1.27051 3.13803 1.59749C2.57354 1.88511 2.1146 2.34405 1.82698 2.90854C1.5 3.55027 1.5 4.39035 1.5 6.07051V12.2705C1.5 13.2005 1.5 13.6655 1.60222 14.047C1.87962 15.0822 2.68827 15.8909 3.72354 16.1683C4.10504 16.2705 4.57003 16.2705 5.5 16.2705Z" stroke="#B6B1B7" stroke-width="1.5" stroke-linecap="round" stroke-linejoin="round"/>
</svg>
