<svg width="32" height="33" viewBox="0 0 32 33" fill="none" xmlns="http://www.w3.org/2000/svg">
<path d="M28.0998 24.4441C29.6698 22.0741 30.4998 19.3241 30.4998 16.4641C30.4998 8.47412 23.9998 1.97412 16.0098 1.97412C8.01977 1.97412 1.50977 8.46412 1.50977 16.4541C1.50977 24.4441 8.00977 30.9441 15.9998 30.9441C17.8098 30.9441 19.5798 30.6141 21.2698 29.9541L28.5998 31.9241C28.6898 31.9441 28.7698 31.9541 28.8598 31.9541C29.1198 31.9541 29.3798 31.8541 29.5698 31.6541C29.8198 31.4041 29.9198 31.0341 29.8198 30.6841L28.0898 24.4241L28.0998 24.4441ZM9.92977 18.1241C9.00977 18.1241 8.26977 17.3741 8.26977 16.4641C8.26977 15.5541 9.01977 14.8041 9.92977 14.8041C10.8398 14.8041 11.5898 15.5541 11.5898 16.4641C11.5898 17.3741 10.8398 18.1241 9.92977 18.1241ZM15.9998 18.1241C15.0798 18.1241 14.3398 17.3741 14.3398 16.4641C14.3398 15.5541 15.0898 14.8041 15.9998 14.8041C16.9098 14.8041 17.6598 15.5541 17.6598 16.4641C17.6598 17.3741 16.9098 18.1241 15.9998 18.1241ZM22.0698 18.1241C21.1498 18.1241 20.4098 17.3741 20.4098 16.4641C20.4098 15.5541 21.1598 14.8041 22.0698 14.8041C22.9798 14.8041 23.7298 15.5541 23.7298 16.4641C23.7298 17.3741 22.9798 18.1241 22.0698 18.1241Z" fill="white"/>
</svg>
