<svg width="24" height="24" viewBox="0 0 24 24" fill="none" xmlns="http://www.w3.org/2000/svg">
<g clip-path="url(#clip0_3178_578)">
<path d="M11.5 1.2002C16.6318 1.2002 20.7998 5.36817 20.7998 10.5C20.7998 15.359 17.4337 20.2714 12.3467 22.7207L11.2002 23.2734V19.792C6.20686 19.6334 2.2002 15.5315 2.2002 10.5C2.2002 5.36817 6.36817 1.2002 11.5 1.2002ZM11.2998 15.7002H11.7002V15.2998H11.2998V15.7002ZM11.9795 4.83105C11.2192 4.71546 10.4428 4.87729 9.79199 5.28711C9.14311 5.69577 8.66256 6.32372 8.4375 7.05664C8.42883 7.08785 8.43349 7.12233 8.45801 7.15527C8.48293 7.1886 8.51267 7.2002 8.54004 7.2002H8.74023C8.7492 7.20017 8.76454 7.19839 8.79004 7.17871C8.82 7.15543 8.85317 7.11318 8.87402 7.05957H8.875C9.32768 5.83042 10.636 4.9804 12.0859 5.28711H12.085C13.4446 5.57135 14.414 6.8916 14.2871 8.27344C14.2013 9.22927 13.6084 9.8043 13.1104 10.2119C12.5634 10.6595 12.15 10.9143 11.8057 11.3652L11.6895 11.5166C11.6878 11.519 11.6869 11.5215 11.6855 11.5234C11.6732 11.5411 11.6678 11.5491 11.666 11.5518L11.6592 11.5625L11.6533 11.5723C11.5948 11.6633 11.5494 11.753 11.5088 11.8613L11.5068 11.8604C11.4926 11.8998 11.4789 11.9351 11.4639 11.9648L11.4326 12.0889L11.418 12.1025C11.4083 12.1375 11.3984 12.1731 11.3896 12.21H11.8135C11.8256 12.166 11.8359 12.1211 11.8506 12.0771H11.8516C11.8782 11.9909 11.9093 11.9111 11.9336 11.8535C11.9491 11.8018 11.9758 11.7288 12.0156 11.6523H12.0146C12.0696 11.5425 12.1331 11.4382 12.1787 11.3652C12.1823 11.3586 12.1864 11.3517 12.1904 11.3447C12.1977 11.3321 12.2166 11.2986 12.2471 11.2568C12.5303 10.8452 12.889 10.5096 13.2051 10.2285C13.5464 9.92495 13.8285 9.69223 14.082 9.41992C14.3231 9.16099 14.4939 8.91039 14.5918 8.62988C14.6875 8.35553 14.731 8.00201 14.6426 7.51172L14.6416 7.50488C14.4064 6.1353 13.3107 5.02759 11.9834 4.83105H11.9795Z" stroke="#251727" stroke-width="1.6"/>
</g>
<defs>
<clipPath id="clip0_3178_578">
<rect width="24" height="24" fill="white"/>
</clipPath>
</defs>
</svg>
