<svg width="24" height="24" viewBox="0 0 24 24" fill="none" xmlns="http://www.w3.org/2000/svg">
<path d="M3 6.25C3 5.38805 3.34241 4.5614 3.9519 3.9519C4.5614 3.34241 5.38805 3 6.25 3H17.75C18.612 3 19.4386 3.34241 20.0481 3.9519C20.6576 4.5614 21 5.38805 21 6.25V17.75C21 18.612 20.6576 19.4386 20.0481 20.0481C19.4386 20.6576 18.612 21 17.75 21H6.25C5.38805 21 4.5614 20.6576 3.9519 20.0481C3.34241 19.4386 3 18.612 3 17.75V6.25ZM6.25 4.5C5.78587 4.5 5.34075 4.68437 5.01256 5.01256C4.68437 5.34075 4.5 5.78587 4.5 6.25V17.75C4.5 18.716 5.284 19.5 6.25 19.5H17.75C18.2141 19.5 18.6592 19.3156 18.9874 18.9874C19.3156 18.6592 19.5 18.2141 19.5 17.75V6.25C19.5 5.78587 19.3156 5.34075 18.9874 5.01256C18.6592 4.68437 18.2141 4.5 17.75 4.5H6.25ZM6 8.25C6 7.284 6.784 6.5 7.75 6.5H16.25C17.216 6.5 18 7.284 18 8.25V9.75C18 10.2141 17.8156 10.6592 17.4874 10.9874C17.1592 11.3156 16.7141 11.5 16.25 11.5H7.75C7.28587 11.5 6.84075 11.3156 6.51256 10.9874C6.18437 10.6592 6 10.2141 6 9.75V8.25ZM7.75 8C7.6837 8 7.62011 8.02634 7.57322 8.07322C7.52634 8.12011 7.5 8.1837 7.5 8.25V9.75C7.5 9.888 7.612 10 7.75 10H16.25C16.3163 10 16.3799 9.97366 16.4268 9.92678C16.4737 9.87989 16.5 9.8163 16.5 9.75V8.25C16.5 8.1837 16.4737 8.12011 16.4268 8.07322C16.3799 8.02634 16.3163 8 16.25 8H7.75ZM6.75 13C6.55109 13 6.36032 13.079 6.21967 13.2197C6.07902 13.3603 6 13.5511 6 13.75C6 13.9489 6.07902 14.1397 6.21967 14.2803C6.36032 14.421 6.55109 14.5 6.75 14.5H11.25C11.4489 14.5 11.6397 14.421 11.7803 14.2803C11.921 14.1397 12 13.9489 12 13.75C12 13.5511 11.921 13.3603 11.7803 13.2197C11.6397 13.079 11.4489 13 11.25 13H6.75ZM6 16.75C6 16.5511 6.07902 16.3603 6.21967 16.2197C6.36032 16.079 6.55109 16 6.75 16H11.25C11.4489 16 11.6397 16.079 11.7803 16.2197C11.921 16.3603 12 16.5511 12 16.75C12 16.9489 11.921 17.1397 11.7803 17.2803C11.6397 17.421 11.4489 17.5 11.25 17.5H6.75C6.55109 17.5 6.36032 17.421 6.21967 17.2803C6.07902 17.1397 6 16.9489 6 16.75ZM15.25 13C14.7859 13 14.3408 13.1844 14.0126 13.5126C13.6844 13.8408 13.5 14.2859 13.5 14.75V15.75C13.5 16.716 14.284 17.5 15.25 17.5H16.25C16.7141 17.5 17.1592 17.3156 17.4874 16.9874C17.8156 16.6592 18 16.2141 18 15.75V14.75C18 14.2859 17.8156 13.8408 17.4874 13.5126C17.1592 13.1844 16.7141 13 16.25 13H15.25ZM15 14.75C15 14.6837 15.0263 14.6201 15.0732 14.5732C15.1201 14.5263 15.1837 14.5 15.25 14.5H16.25C16.3163 14.5 16.3799 14.5263 16.4268 14.5732C16.4737 14.6201 16.5 14.6837 16.5 14.75V15.75C16.5 15.8163 16.4737 15.8799 16.4268 15.9268C16.3799 15.9737 16.3163 16 16.25 16H15.25C15.1837 16 15.1201 15.9737 15.0732 15.9268C15.0263 15.8799 15 15.8163 15 15.75V14.75Z" fill="#383639"/>
</svg>
