<svg width="25" height="24" viewBox="0 0 25 24" fill="none" xmlns="http://www.w3.org/2000/svg">
<path d="M21.7424 13.7083L14.2083 21.2424C14.1419 21.3087 14.0725 21.3718 14.0004 21.431C13.948 21.4741 13.8943 21.5151 13.8392 21.554C13.4462 21.8314 12.9858 22 12.5 22C12.5 21.4484 12.5 20.9513 12.503 20.5C12.5153 18.6662 12.5776 17.5889 12.8928 16.688C13.5964 14.6773 15.1773 13.0964 17.188 12.3928C18.0889 12.0776 19.1662 12.0153 21 12.003C21.4513 12 21.9484 12 22.5 12C22.5 12.4858 22.3314 12.9462 22.054 13.3392C22.0151 13.3943 21.9741 13.448 21.931 13.5004C21.8718 13.5725 21.8087 13.6419 21.7424 13.7083Z" fill="white"/>
<path fill-rule="evenodd" clip-rule="evenodd" d="M12.5 2C6.97715 2 2.5 6.47715 2.5 12C2.5 16.7058 5.7504 20.6524 10.1285 21.7171C10.5829 21.8276 11 21.4676 11 21C10.9995 19.298 10.999 18.6806 11.1516 17.5894C10.3847 17.4036 9.67479 17.0631 9.05339 16.6025C8.72062 16.3559 8.65082 15.8862 8.89747 15.5534C9.14413 15.2206 9.61385 15.1508 9.94661 15.3975C10.4102 15.7411 10.935 15.9927 11.4991 16.1302C12.1495 14.317 13.3891 12.7963 14.993 11.7932C14.698 11.5324 14.5 11.0509 14.5 10.5C14.5 9.67157 14.9477 9 15.5 9C16.0523 9 16.5 9.67157 16.5 10.5C16.5 10.7042 16.4728 10.8988 16.4235 11.0763C16.5125 11.0417 16.6022 11.0086 16.6926 10.977C18.0598 10.4986 19.0105 10.4992 21.5 10.5C21.9676 10.5 22.3276 10.0829 22.2171 9.62855C21.1524 5.2504 17.2058 2 12.5 2ZM9.5 12C10.0523 12 10.5 11.3284 10.5 10.5C10.5 9.67157 10.0523 9 9.5 9C8.94772 9 8.5 9.67157 8.5 10.5C8.5 11.3284 8.94772 12 9.5 12Z" fill="white"/>
</svg>
