<svg width="25" height="24" viewBox="0 0 25 24" fill="none" xmlns="http://www.w3.org/2000/svg">
<path d="M16.7563 9.90229C17.4728 8.44094 17.4717 6.66084 16.5967 5.14546C15.2007 2.72775 12.1087 1.8994 9.69072 3.29525C7.34861 4.64729 6.4978 7.59017 7.71535 9.97069C8.60742 11.7149 10.5086 12.8143 12.4591 12.723C14.2776 12.6379 15.9543 11.5381 16.7563 9.90229Z" fill="white"/>
<path d="M5.4544 10.6417C5.8624 10.4062 6.2896 10.234 6.72459 10.1221C7.52777 11.9174 9.20055 13.2348 11.1385 13.5896C10.7737 15.1562 11.0619 16.8292 11.925 18.1853C11.5436 18.6604 11.0693 19.0741 10.5099 19.397C8.0919 20.7928 4.99999 19.9645 3.60394 17.5468C2.20789 15.1291 3.03637 12.0376 5.4544 10.6417Z" fill="white"/>
<path d="M12.1031 13.6875C13.163 13.709 14.2421 13.4506 15.2272 12.8819C16.4259 12.1899 17.2964 11.1476 17.7838 9.95898C19.2392 10.1889 20.5819 11.0499 21.376 12.4251C22.7721 14.8428 21.9436 17.9343 19.5256 19.3301C17.1075 20.7259 14.0156 19.8976 12.6196 17.4799C11.9296 16.285 11.783 14.9255 12.1031 13.6875Z" fill="white"/>
</svg>
