<svg width="25" height="15" viewBox="0 0 25 15" fill="none" xmlns="http://www.w3.org/2000/svg">
<path d="M11.8567 14.5L6.49672 0.499999H9.23672L14.7567 14.5H11.8567ZM0.796719 14.5L6.31672 0.499999H9.05672L3.69672 14.5H0.796719ZM3.39672 11.42V9H12.1767V11.42H3.39672ZM21.8792 14.5L21.7992 12.48V9.44C21.7992 8.84 21.7326 8.32667 21.5992 7.9C21.4792 7.47333 21.2792 7.14667 20.9992 6.92C20.7326 6.68 20.3659 6.56 19.8992 6.56C19.4726 6.56 19.0859 6.65333 18.7392 6.84C18.3926 7.02667 18.0992 7.31333 17.8592 7.7L15.5392 6.9C15.7259 6.47333 15.9992 6.06 16.3592 5.66C16.7192 5.24667 17.1859 4.91333 17.7592 4.66C18.3459 4.39333 19.0592 4.26 19.8992 4.26C20.9126 4.26 21.7526 4.45333 22.4192 4.84C23.0992 5.22667 23.5992 5.77333 23.9192 6.48C24.2526 7.17333 24.4126 8 24.3992 8.96L24.3392 14.5H21.8792ZM19.0792 14.74C17.8792 14.74 16.9459 14.4733 16.2792 13.94C15.6259 13.4067 15.2992 12.6533 15.2992 11.68C15.2992 10.6133 15.6526 9.81333 16.3592 9.28C17.0792 8.73333 18.0859 8.46 19.3792 8.46H21.9192V10.42H20.2992C19.4326 10.42 18.8326 10.5267 18.4992 10.74C18.1659 10.94 17.9992 11.2267 17.9992 11.6C17.9992 11.8933 18.1326 12.1267 18.3992 12.3C18.6659 12.46 19.0392 12.54 19.5192 12.54C19.9592 12.54 20.3459 12.44 20.6792 12.24C21.0259 12.0267 21.2992 11.76 21.4992 11.44C21.6992 11.1067 21.7992 10.7667 21.7992 10.42H22.4392C22.4392 11.78 22.1792 12.84 21.6592 13.6C21.1526 14.36 20.2926 14.74 19.0792 14.74Z" fill="white"/>
</svg>
