<svg width="25" height="24" viewBox="0 0 25 24" fill="none" xmlns="http://www.w3.org/2000/svg">
<path d="M21.5 1.65918H3.5C3.303 1.65912 3.10792 1.69788 2.92591 1.77325C2.7439 1.84861 2.57851 1.9591 2.43922 2.0984C2.29992 2.23769 2.18943 2.40308 2.11407 2.58509C2.03871 2.7671 1.99994 2.96218 2 3.15918V13.0592C1.99995 13.2562 2.03871 13.4513 2.11407 13.6333C2.18943 13.8153 2.29992 13.9807 2.43922 14.12C2.57852 14.2593 2.7439 14.3697 2.92591 14.4451C3.10792 14.5205 3.303 14.5592 3.5 14.5592H8.42375L6.39125 12.5342C6.2125 12.3576 6.07044 12.1474 5.97326 11.9157C5.87607 11.6841 5.82569 11.4354 5.825 11.1842L5.81 8.34918C5.81146 8.12996 5.87776 7.91607 6.00056 7.73447C6.12336 7.55287 6.29716 7.41167 6.50006 7.32867C6.70297 7.24566 6.9259 7.22457 7.14077 7.26804C7.35564 7.31151 7.55284 7.4176 7.70752 7.57295C8.15384 8.03261 14.2108 14.2736 14.4875 14.5592L21.5 14.5592C21.697 14.5592 21.8921 14.5205 22.0741 14.4451C22.2561 14.3698 22.4215 14.2593 22.5608 14.12C22.7001 13.9807 22.8106 13.8153 22.8859 13.6333C22.9613 13.4513 23.0001 13.2562 23 13.0592V3.15919C23.0001 2.96219 22.9613 2.76711 22.8859 2.5851C22.8106 2.40308 22.7001 2.2377 22.5608 2.0984C22.4215 1.9591 22.2561 1.84861 22.0741 1.77325C21.8921 1.69789 21.697 1.65912 21.5 1.65918ZM4.865 12.5829H4.0025V11.7242H4.865V12.5829ZM4.865 9.88668H4.0025V9.02793H4.865V9.88668ZM4.865 7.19043H4.0025V6.33168H4.865V7.19043ZM4.865 4.49418H4.0025V3.63543H4.865V4.49418ZM20.9938 12.5829H20.1312V11.7242H20.9938V12.5829ZM20.9938 9.88668H20.1312V9.02793H20.9938V9.88668ZM20.9938 7.19043H20.1312V6.33168H20.9938V7.19043ZM20.9938 4.49418H20.1312V3.63543H20.9938V4.49418ZM14.7313 15.8867C13.3598 14.4764 8.61752 9.58771 7.1675 8.09418C7.11753 8.04503 7.0542 8.01167 6.9854 7.99826C6.9166 7.98485 6.84538 7.99198 6.78061 8.01877C6.71584 8.04556 6.66038 8.09082 6.62115 8.14891C6.58192 8.20699 6.56065 8.27534 6.56 8.34543L6.575 11.1842C6.576 11.3364 6.60699 11.487 6.66618 11.6272C6.72538 11.7675 6.81163 11.8947 6.92 12.0017C8.59191 13.667 12.7478 17.8053 14.4762 19.5279C15.9332 21.0339 18.6267 19.9184 18.56 17.8066C18.6058 15.8536 16.2322 14.7133 14.7313 15.8867ZM11.6412 15.2754C11.5284 15.2744 11.4205 15.2289 11.3409 15.1489C11.2613 15.0689 11.2164 14.9608 11.2159 14.8479C11.2154 14.735 11.2594 14.6265 11.3383 14.5458C11.4172 14.4651 11.5247 14.4187 11.6375 14.4167C11.7504 14.4177 11.8583 14.4632 11.9379 14.5432C12.0175 14.6232 12.0624 14.7314 12.0629 14.8442C12.0634 14.9571 12.0194 15.0656 11.9405 15.1463C11.8616 15.227 11.7541 15.2734 11.6412 15.2754ZM16.9137 18.6279C16.7031 18.8366 16.4187 18.9537 16.1222 18.9539C15.8257 18.954 15.5411 18.8372 15.3302 18.6288C15.1194 18.4204 14.9992 18.1372 14.9959 17.8408C14.9926 17.5443 15.1063 17.2585 15.3125 17.0454C15.5231 16.8368 15.8076 16.7197 16.1041 16.7195C16.4005 16.7193 16.6851 16.8361 16.896 17.0445C17.1069 17.2529 17.227 17.5361 17.2304 17.8326C17.2337 18.129 17.1199 18.4149 16.9137 18.6279ZM16.115 18.2117C16.0163 18.211 15.9218 18.1715 15.8521 18.1016C15.7823 18.0318 15.743 17.9372 15.7425 17.8385C15.742 17.7398 15.7804 17.6449 15.8494 17.5744C15.9185 17.5038 16.0126 17.4633 16.1112 17.4617C16.21 17.4622 16.3046 17.5017 16.3744 17.5716C16.4442 17.6415 16.4836 17.7361 16.4841 17.8348C16.4846 17.9336 16.4461 18.0286 16.377 18.0991C16.3079 18.1697 16.2138 18.2101 16.115 18.2117ZM6.06875 18.0129C5.59307 18.494 5.32742 19.1439 5.33 19.8204C5.30029 22.0552 8.15575 23.1852 9.69503 21.5979C10.1221 21.1641 10.38 20.5919 10.4219 19.9846C10.4639 19.3773 10.2872 18.775 9.92375 18.2867C9.92375 18.2867 11.0375 17.2029 11.0525 17.1767C11.0487 17.1766 8.975 15.1104 8.975 15.1104C8.9525 15.1254 6.06875 18.0129 6.06875 18.0129ZM8.7575 20.5029C8.62728 20.6344 8.46663 20.7317 8.2898 20.7862C8.11298 20.8407 7.92543 20.8507 7.7438 20.8154C7.56216 20.7801 7.39205 20.7005 7.24853 20.5837C7.10501 20.4669 6.99253 20.3165 6.92105 20.1458C6.84958 19.9752 6.82132 19.7895 6.83877 19.6053C6.85623 19.4211 6.91886 19.244 7.02113 19.0898C7.12339 18.9356 7.26212 18.809 7.42502 18.7212C7.58793 18.6335 7.76996 18.5872 7.955 18.5867C8.17612 18.5886 8.39181 18.6554 8.57537 18.7787C8.75893 18.902 8.90229 19.0764 8.98771 19.2804C9.07312 19.4843 9.09684 19.7089 9.05592 19.9262C9.015 20.1435 8.91125 20.344 8.7575 20.5029ZM7.96253 20.0867C7.86382 20.086 7.76934 20.0465 7.6996 19.9766C7.62985 19.9068 7.59046 19.8123 7.58996 19.7135C7.58946 19.6148 7.6279 19.5199 7.69694 19.4494C7.76598 19.3788 7.86005 19.3383 7.95875 19.3367C8.05751 19.3372 8.15207 19.3767 8.22189 19.4466C8.29171 19.5165 8.33115 19.611 8.33165 19.7098C8.33215 19.8086 8.29367 19.9036 8.22456 19.9741C8.15545 20.0447 8.06128 20.0851 7.96253 20.0867Z" fill="white"/>
</svg>
