<svg width="25" height="24" viewBox="0 0 25 24" fill="none" xmlns="http://www.w3.org/2000/svg">
<path d="M9.16016 15.6225H16.8514C17.0484 15.6226 17.2435 15.5838 17.4255 15.5084C17.6075 15.4331 17.7729 15.3226 17.9122 15.1833C18.0515 15.044 18.162 14.8786 18.2373 14.6966C18.3127 14.5146 18.3515 14.3195 18.3514 14.1225V2.8125C18.3515 2.6155 18.3127 2.42042 18.2373 2.23841C18.162 2.0564 18.0515 1.89101 17.9122 1.75172C17.7729 1.61242 17.6075 1.50193 17.4255 1.42657C17.2435 1.35121 17.0484 1.31244 16.8514 1.3125H9.16016C8.96316 1.31244 8.76808 1.35121 8.58607 1.42657C8.40405 1.50193 8.23867 1.61242 8.09937 1.75172C7.96007 1.89101 7.84959 2.0564 7.77422 2.23841C7.69886 2.42042 7.6601 2.6155 7.66016 2.8125V14.1225C7.6601 14.3195 7.69886 14.5146 7.77422 14.6966C7.84958 14.8786 7.96007 15.044 8.09937 15.1833C8.23867 15.3226 8.40405 15.4331 8.58606 15.5084C8.76808 15.5838 8.96316 15.6226 9.16016 15.6225ZM13.0039 4.37625C14.0892 4.3768 15.1298 4.80789 15.8976 5.57493C16.6653 6.34196 17.0974 7.38226 17.0989 8.4675C16.8749 13.8931 9.13676 13.8955 8.91266 8.46747C8.914 7.38281 9.34547 6.34297 10.1124 5.57601C10.8794 4.80905 11.9193 4.37758 13.0039 4.37625Z" fill="white"/>
<path d="M21.8568 5.63297C21.7621 5.48998 21.6395 5.36749 21.4965 5.2728C21.3535 5.1781 21.1929 5.11312 21.0243 5.08172L19.1005 4.69922V14.123C19.1004 14.7197 18.8633 15.2919 18.4414 15.7138C18.0194 16.1357 17.4472 16.3728 16.8505 16.373H9.2793C9.30118 16.6581 9.41617 16.9282 9.60656 17.1417C9.79696 17.3551 10.0522 17.5 10.333 17.5542L18.2568 19.118C18.5967 19.1831 18.9485 19.1117 19.2362 18.9195C19.5239 18.7272 19.7244 18.4294 19.7943 18.0905L22.0555 6.61547C22.0892 6.4467 22.089 6.27293 22.0548 6.10426C22.0207 5.93559 21.9534 5.77539 21.8568 5.63297Z" fill="white"/>
<path d="M10.187 18.2923C9.72086 18.1987 9.30114 17.9474 8.99856 17.5806C8.69599 17.2138 8.52902 16.754 8.52579 16.2785C8.05973 16.1417 7.65044 15.8578 7.35912 15.4691C7.0678 15.0805 6.91008 14.608 6.90954 14.1223C6.90899 13.6648 6.90994 8.28614 6.90954 8.00977L3.89079 8.82352C3.7246 8.86727 3.56873 8.94354 3.4322 9.04793C3.29568 9.15231 3.18121 9.28273 3.09541 9.43165C3.00962 9.58056 2.95422 9.74501 2.93239 9.91547C2.91057 10.0859 2.92278 10.259 2.96829 10.4248L6.00954 21.7198C6.10078 22.0528 6.31969 22.3365 6.61876 22.5092C6.91784 22.6819 7.27295 22.7297 7.60704 22.6423L15.4108 20.5423C15.6506 20.4792 15.8673 20.3484 16.0348 20.1655C16.2024 19.9827 16.3138 19.7555 16.3558 19.511C16.1739 19.4763 10.5836 18.3685 10.187 18.2923Z" fill="white"/>
<path d="M13.0034 11.8092C13.8899 11.8092 14.7401 11.4573 15.3673 10.8308C15.9946 10.2043 16.3474 9.35443 16.3484 8.46792C16.1724 4.04064 9.83833 4.03802 9.66211 8.46796C9.66286 9.35388 10.0151 10.2033 10.6416 10.8297C11.268 11.4562 12.1174 11.8084 13.0034 11.8092ZM10.9671 7.13293C10.9694 6.93635 11.0229 6.74376 11.1221 6.57407C11.2214 6.40439 11.3631 6.26345 11.5333 6.1651C11.7036 6.06676 11.8964 6.01438 12.093 6.01313C12.2896 6.01187 12.4831 6.06178 12.6546 6.15795L14.9684 7.49292C15.1394 7.59182 15.2814 7.73398 15.3801 7.90511C15.4789 8.07625 15.5309 8.27035 15.5309 8.46792C15.5309 8.6655 15.4789 8.8596 15.3801 9.03074C15.2814 9.20187 15.1394 9.34403 14.9684 9.44292L12.6546 10.7779C12.4832 10.8743 12.2896 10.9244 12.0929 10.9232C11.8963 10.922 11.7033 10.8697 11.533 10.7713C11.3627 10.6729 11.221 10.5319 11.1218 10.3621C11.0226 10.1923 10.9693 9.99958 10.9671 9.80292L10.9671 7.13293Z" fill="white"/>
<path d="M11.9044 10.1283C11.9615 10.1611 12.0261 10.1783 12.0919 10.1783C12.1577 10.1783 12.2224 10.1611 12.2794 10.1283L14.5932 8.79331C14.6506 8.76046 14.6982 8.71293 14.7311 8.65559C14.7641 8.59826 14.7812 8.53319 14.7807 8.46706C14.7811 8.40146 14.7639 8.33696 14.7309 8.28026C14.6979 8.22355 14.6504 8.17669 14.5932 8.14456L12.2794 6.80956C12.2247 6.77427 12.1608 6.756 12.0957 6.75706C12.0458 6.75531 11.9961 6.76379 11.9496 6.78197C11.9031 6.80015 11.8608 6.82764 11.8253 6.86276C11.7898 6.89788 11.7619 6.93989 11.7433 6.9862C11.7246 7.0325 11.7157 7.08214 11.7169 7.13204L11.7169 9.80206C11.7166 9.86816 11.7337 9.93317 11.7667 9.99048C11.7996 10.0478 11.8471 10.0953 11.9044 10.1283Z" fill="white"/>
</svg>
