<svg width="24" height="24" viewBox="0 0 24 24" fill="none" xmlns="http://www.w3.org/2000/svg">
<path d="M12 3H5C4.46957 3 3.96086 3.21071 3.58579 3.58579C3.21071 3.96086 3 4.46957 3 5V19C3 19.5304 3.21071 20.0391 3.58579 20.4142C3.96086 20.7893 4.46957 21 5 21H19C19.5304 21 20.0391 20.7893 20.4142 20.4142C20.7893 20.0391 21 19.5304 21 19V12" stroke="#19101A" stroke-width="2" stroke-linecap="round" stroke-linejoin="round"/>
<path d="M18.3751 2.62523C18.7729 2.2274 19.3125 2.00391 19.8751 2.00391C20.4377 2.00391 20.9773 2.2274 21.3751 2.62523C21.7729 3.02305 21.9964 3.56262 21.9964 4.12523C21.9964 4.68784 21.7729 5.2274 21.3751 5.62523L12.3621 14.6392C12.1246 14.8765 11.8313 15.0501 11.5091 15.1442L8.63609 15.9842C8.55005 16.0093 8.45883 16.0108 8.372 15.9886C8.28517 15.9663 8.20592 15.9212 8.14254 15.8578C8.07916 15.7944 8.03398 15.7151 8.01174 15.6283C7.98949 15.5415 7.991 15.4503 8.01609 15.3642L8.85609 12.4912C8.95062 12.1693 9.12463 11.8763 9.36209 11.6392L18.3751 2.62523Z" stroke="#19101A" stroke-width="2" stroke-linecap="round" stroke-linejoin="round"/>
</svg>
