<svg width="25" height="24" viewBox="0 0 25 24" fill="none" xmlns="http://www.w3.org/2000/svg">
<path fill-rule="evenodd" clip-rule="evenodd" d="M18.9024 12.4355C12.6741 13.647 11.1565 18.7922 10.001 23.3648C8.84225 18.7922 7.32797 13.647 1.09961 12.4355C7.32797 11.2208 8.84225 6.07549 10.001 1.50293C11.1565 6.07549 12.6741 11.2208 18.9024 12.4355Z" fill="white"/>
<path fill-rule="evenodd" clip-rule="evenodd" d="M12.9883 3.38215C14.5553 3.07932 14.9338 1.7856 15.2268 0.636719C15.5165 1.7856 15.8983 3.07932 17.4653 3.38215C15.8983 3.68836 15.5165 4.98207 15.2268 6.13096C14.9338 4.98207 14.5553 3.68836 12.9883 3.38215Z" fill="white"/>
<path fill-rule="evenodd" clip-rule="evenodd" d="M23.8986 8.8139C21.647 9.25176 21.1005 11.1117 20.6791 12.7642C20.261 11.1117 19.7146 9.25176 17.4629 8.8139C19.7146 8.37613 20.261 6.51613 20.6791 4.86035C21.1005 6.51613 21.647 8.37613 23.8986 8.8139Z" fill="white"/>
</svg>
