<svg width="93" height="93" viewBox="0 0 93 93" fill="none" xmlns="http://www.w3.org/2000/svg">
<path d="M35.0013 8.02246C24.958 8.02246 16.793 16.1875 16.793 26.2308C16.793 36.0825 24.498 44.0558 34.5413 44.4008C34.848 44.3625 35.1546 44.3625 35.3846 44.4008H35.5763H35.653C45.4663 44.0558 53.1713 36.0825 53.2096 26.2308C53.2096 16.1875 45.0446 8.02246 35.0013 8.02246Z" fill="#EDE5F4"/>
<path d="M54.4774 54.597C43.7824 47.467 26.3409 47.467 15.5692 54.597C10.7009 57.8553 8.01758 62.2637 8.01758 66.9787C8.01758 71.6937 10.7009 76.0637 15.5309 79.2837C20.8976 82.887 27.9509 84.6887 35.0042 84.6887C42.0574 84.6887 49.1108 82.887 54.4774 79.2837C59.3074 76.0253 61.9908 71.6553 61.9908 66.902C61.9524 62.187 59.3074 57.817 54.4774 54.597Z" fill="#8C37C3" fill-opacity="0.2"/>
<path d="M77.1259 28.4928C77.7393 35.9295 72.4493 42.4462 65.1276 43.3278C65.0893 43.3278 65.0893 43.3278 65.0509 43.3278H64.9359C64.7059 43.3278 64.4759 43.3278 64.2843 43.4045C60.5659 43.5962 57.1543 42.4078 54.5859 40.2228C58.5343 36.6962 60.7959 31.4062 60.3359 25.6562C60.0676 22.5512 58.9943 19.7145 57.3843 17.2995C58.8409 16.5712 60.5276 16.1112 62.2526 15.9578C69.7659 15.3062 76.4743 20.9028 77.1259 28.4928Z" fill="#EDE5F4"/>
<path d="M84.7956 63.9504C84.4889 67.6687 82.1122 70.8887 78.1256 73.0737C74.2922 75.182 69.4622 76.1787 64.6706 76.0637C67.4306 73.572 69.0406 70.467 69.3472 67.1704C69.7306 62.417 67.4689 57.8554 62.9456 54.2137C60.3772 52.182 57.3872 50.572 54.1289 49.3837C62.6006 46.9304 73.2572 48.5787 79.8122 53.8687C83.3389 56.7054 85.1406 60.2704 84.7956 63.9504Z" fill="#8C37C3" fill-opacity="0.2"/>
</svg>
