<svg width="92" height="92" viewBox="0 0 92 92" fill="none" xmlns="http://www.w3.org/2000/svg">
<path d="M81.9187 43.6612V66.6229C81.9187 77.2029 73.332 85.7896 62.752 85.7896H29.2487C18.6687 85.7896 10.082 77.2029 10.082 66.6229V43.9296C12.9954 47.0729 17.1354 48.8746 21.6204 48.8746C26.4504 48.8746 31.0887 46.4596 34.002 42.5879C35.3323 44.5401 37.1227 46.1348 39.2153 47.2312C41.3078 48.3276 43.6381 48.892 46.0004 48.8746C50.907 48.8746 55.277 46.5746 57.922 42.7412C60.8737 46.5362 65.4354 48.8746 70.1887 48.8746C74.827 48.8746 79.0437 46.9962 81.9187 43.6612Z" fill="#F2EDF7"/>
<path opacity="0.6" d="M85.7139 31.702L84.6023 21.0837C82.9923 9.50699 77.7406 4.79199 66.5089 4.79199H51.7889L54.6256 33.542C54.6639 33.9253 54.7023 34.347 54.7023 35.0753C54.9323 37.0687 55.5456 38.9087 56.4656 40.557C59.2256 45.617 64.5923 48.8753 70.1889 48.8753C75.2873 48.8753 79.8873 46.6137 82.7623 42.627C85.0623 39.5603 86.0973 35.6887 85.7139 31.702ZM25.2623 4.79199C13.9923 4.79199 8.77894 9.50699 7.13061 21.1987L6.09561 31.7403C5.71228 35.842 6.82394 39.8287 9.23894 42.9337C12.1523 46.7287 16.6373 48.8753 21.6206 48.8753C27.2173 48.8753 32.5839 45.617 35.3056 40.6337C36.3023 38.9087 36.9539 36.9153 37.1456 34.8453L40.1356 4.83033H25.2623V4.79199Z" fill="#E2D2F0"/>
<path d="M57.4622 4.79199H34.4622L31.6255 33.0053C31.3955 35.612 31.7788 38.0653 32.7372 40.2887C34.9605 45.502 40.1738 48.8753 46.0005 48.8753C51.9038 48.8753 57.0022 45.5787 59.3022 40.327C59.9922 38.6787 60.4138 36.762 60.4522 34.807V34.0787L57.4622 4.79199Z" fill="#E2D2F0"/>
<path d="M43.5074 63.8636C41.154 64.115 38.9775 65.23 37.3985 66.993C35.8196 68.756 34.9504 71.0419 34.959 73.4086V85.7903H57.0007V74.7503C57.039 66.7386 52.3241 62.9436 43.5074 63.8636Z" fill="#E2D2F0"/>
</svg>
