<svg width="78" height="78" viewBox="0 0 78 78" fill="none" xmlns="http://www.w3.org/2000/svg">
<g clip-path="url(#clip0_120_4930)">
<rect width="78" height="78" rx="39" fill="#8C37C3" fill-opacity="0.1"/>
<path d="M39.5 48.5C43.644 48.5 47.6183 46.8538 50.5485 43.9235C53.4788 40.9933 55.125 37.019 55.125 32.875C55.125 28.731 53.4788 24.7567 50.5485 21.8265C47.6183 18.8962 43.644 17.25 39.5 17.25C35.356 17.25 31.3817 18.8962 28.4515 21.8265C25.5212 24.7567 23.875 28.731 23.875 32.875C23.875 37.019 25.5212 40.9933 28.4515 43.9235C31.3817 46.8538 35.356 48.5 39.5 48.5ZM39.5 56.3125C23.8438 56.3125 11.0938 66.8125 11.0938 79.75C11.0938 80.625 11.7813 81.3125 12.6563 81.3125H66.3438C67.2188 81.3125 67.9063 80.625 67.9063 79.75C67.9063 66.8125 55.1563 56.3125 39.5 56.3125Z" fill="#DAC3EB"/>
</g>
<defs>
<clipPath id="clip0_120_4930">
<rect width="78" height="78" rx="39" fill="white"/>
</clipPath>
</defs>
</svg>
