<svg width="78" height="78" viewBox="0 0 78 78" fill="none" xmlns="http://www.w3.org/2000/svg">
<g clip-path="url(#clip0_120_4443)">
<rect width="78" height="78" rx="39" fill="#8C37C3" fill-opacity="0.1"/>
<path d="M39.5 48.5C43.644 48.5 47.6183 46.8538 50.5485 43.9235C53.4788 40.9933 55.125 37.019 55.125 32.875C55.125 28.731 53.4788 24.7567 50.5485 21.8265C47.6183 18.8962 43.644 17.25 39.5 17.25C35.356 17.25 31.3817 18.8962 28.4515 21.8265C25.5212 24.7567 23.875 28.731 23.875 32.875C23.875 37.019 25.5212 40.9933 28.4515 43.9235C31.3817 46.8538 35.356 48.5 39.5 48.5ZM39.5 56.3125C23.8438 56.3125 11.0938 66.8125 11.0938 79.75C11.0938 80.625 11.7813 81.3125 12.6563 81.3125H66.3438C67.2188 81.3125 67.9063 80.625 67.9063 79.75C67.9063 66.8125 55.1563 56.3125 39.5 56.3125Z" fill="#DAC3EB"/>
<g opacity="0.8">
<path d="M29 35.3772C29 35.0269 29 34.8517 29.0146 34.7042C29.1556 33.2813 30.2813 32.1556 31.7042 32.0146C31.8517 32 32.0364 32 32.4056 32C32.5479 32 32.619 32 32.6794 31.9963C33.4506 31.9496 34.126 31.4629 34.4141 30.746C34.4367 30.6899 34.4578 30.6266 34.5 30.5C34.5422 30.3734 34.5633 30.3101 34.5859 30.254C34.874 29.5371 35.5494 29.0504 36.3206 29.0037C36.381 29 36.4477 29 36.5811 29H41.4189C41.5523 29 41.619 29 41.6794 29.0037C42.4506 29.0504 43.126 29.5371 43.4141 30.254C43.4367 30.3101 43.4578 30.3734 43.5 30.5C43.5422 30.6266 43.5633 30.6899 43.5859 30.746C43.874 31.4629 44.5494 31.9496 45.3206 31.9963C45.381 32 45.4521 32 45.5944 32C45.9636 32 46.1483 32 46.2958 32.0146C47.7187 32.1556 48.8444 33.2813 48.9854 34.7042C49 34.8517 49 35.0269 49 35.3772V43.2C49 44.8802 49 45.7202 48.673 46.362C48.3854 46.9265 47.9265 47.3854 47.362 47.673C46.7202 48 45.8802 48 44.2 48H33.8C32.1198 48 31.2798 48 30.638 47.673C30.0735 47.3854 29.6146 46.9265 29.327 46.362C29 45.7202 29 44.8802 29 43.2V35.3772Z" stroke="white" stroke-width="2" stroke-linecap="round" stroke-linejoin="round"/>
<path d="M39 43.5C41.2091 43.5 43 41.7091 43 39.5C43 37.2909 41.2091 35.5 39 35.5C36.7909 35.5 35 37.2909 35 39.5C35 41.7091 36.7909 43.5 39 43.5Z" stroke="white" stroke-width="2" stroke-linecap="round" stroke-linejoin="round"/>
</g>
</g>
<defs>
<clipPath id="clip0_120_4443">
<rect width="78" height="78" rx="39" fill="white"/>
</clipPath>
</defs>
</svg>
