<svg width="21" height="21" viewBox="0 0 21 21" fill="none" xmlns="http://www.w3.org/2000/svg">
<path d="M10.5 1.75C8.76942 1.75 7.07769 2.26318 5.63876 3.22464C4.19983 4.1861 3.07832 5.55267 2.41606 7.15152C1.75379 8.75037 1.58051 10.5097 1.91813 12.207C2.25575 13.9044 3.08911 15.4635 4.31282 16.6872C5.53653 17.9109 7.09563 18.7443 8.79296 19.0819C10.4903 19.4195 12.2496 19.2462 13.8485 18.5839C15.4473 17.9217 16.8139 16.8002 17.7754 15.3612C18.7368 13.9223 19.25 12.2306 19.25 10.5C19.25 9.35093 19.0237 8.21312 18.584 7.15152C18.1442 6.08992 17.4997 5.12533 16.6872 4.31282C15.8747 3.5003 14.9101 2.85578 13.8485 2.41605C12.7869 1.97633 11.6491 1.75 10.5 1.75ZM10.5 17.5C9.11553 17.5 7.76216 17.0895 6.61101 16.3203C5.45987 15.5511 4.56266 14.4579 4.03285 13.1788C3.50303 11.8997 3.36441 10.4922 3.63451 9.13437C3.9046 7.7765 4.57129 6.52922 5.55026 5.55025C6.52922 4.57129 7.7765 3.9046 9.13437 3.6345C10.4922 3.36441 11.8997 3.50303 13.1788 4.03284C14.4579 4.56266 15.5511 5.45986 16.3203 6.61101C17.0895 7.76215 17.5 9.11553 17.5 10.5C17.5 12.3565 16.7625 14.137 15.4498 15.4497C14.137 16.7625 12.3565 17.5 10.5 17.5Z" fill="#D18C01"/>
<path d="M10.4999 14.875C10.9831 14.875 11.3749 14.4832 11.3749 14C11.3749 13.5168 10.9831 13.125 10.4999 13.125C10.0166 13.125 9.62488 13.5168 9.62488 14C9.62488 14.4832 10.0166 14.875 10.4999 14.875Z" fill="#D18C01"/>
<path d="M10.5 6.125C10.2679 6.125 10.0454 6.21719 9.88128 6.38128C9.71719 6.54538 9.625 6.76794 9.625 7V11.375C9.625 11.6071 9.71719 11.8296 9.88128 11.9937C10.0454 12.1578 10.2679 12.25 10.5 12.25C10.7321 12.25 10.9546 12.1578 11.1187 11.9937C11.2828 11.8296 11.375 11.6071 11.375 11.375V7C11.375 6.76794 11.2828 6.54538 11.1187 6.38128C10.9546 6.21719 10.7321 6.125 10.5 6.125Z" fill="#D18C01"/>
</svg>
