<svg width="24" height="24" viewBox="0 0 24 24" fill="none" xmlns="http://www.w3.org/2000/svg">
<path d="M12 22C17.523 22 22 17.523 22 12C22 6.477 17.523 2 12 2C6.477 2 2 6.477 2 12C2 17.523 6.477 22 12 22Z" fill="#8C37C3" fill-opacity="0.2"/>
<path d="M12 13.75C12.41 13.75 12.75 13.41 12.75 13V8C12.75 7.59 12.41 7.25 12 7.25C11.59 7.25 11.25 7.59 11.25 8V13C11.25 13.41 11.59 13.75 12 13.75ZM12.92 15.619C12.87 15.499 12.8 15.389 12.71 15.289C12.61 15.199 12.5 15.129 12.38 15.079C12.1365 14.979 11.8635 14.979 11.62 15.079C11.5 15.129 11.39 15.199 11.29 15.289C11.2 15.389 11.13 15.499 11.08 15.619C11.03 15.739 11 15.869 11 15.999C11 16.129 11.03 16.259 11.08 16.379C11.13 16.509 11.2 16.609 11.29 16.709C11.39 16.799 11.5 16.869 11.62 16.919C11.74 16.969 11.87 16.999 12 16.999C12.13 16.999 12.26 16.969 12.38 16.919C12.5 16.869 12.61 16.799 12.71 16.709C12.8 16.609 12.87 16.509 12.92 16.379C12.97 16.259 13 16.129 13 15.999C13 15.869 12.97 15.739 12.92 15.619Z" fill="#8C37C3"/>
</svg>
