<svg width="14" height="12" viewBox="0 0 14 12" fill="none" xmlns="http://www.w3.org/2000/svg">
<path d="M13.7707 7.73253L13.6724 7.68218C12.9862 7.33045 12.5114 6.82896 12.1785 6.10392L12.1308 6.00015C11.9862 5.67706 11.5372 5.67717 11.3927 6.00015L11.345 6.10398C11.0121 6.82899 10.5374 7.33048 9.851 7.68221L9.75277 7.73256C9.44692 7.88527 9.44706 8.35969 9.7528 8.51229L9.85106 8.56264C10.5374 8.91437 11.0121 9.41586 11.345 10.1409L11.3927 10.2447C11.5372 10.5678 11.9864 10.5677 12.1308 10.2447L12.1785 10.1409C12.5114 9.41586 12.9862 8.91437 13.6724 8.56267L13.7707 8.51232C14.0766 8.35966 14.0765 7.88516 13.7707 7.73253Z" fill="#FFD700"/>
<path d="M10.3086 1.07188C10.9299 1.10058 11.4943 1.32125 11.9297 1.69005L12.1084 1.85704C12.8065 2.57988 13.0135 3.62979 12.7402 4.70274C11.9185 4.12482 10.6808 4.36076 10.2002 5.4127L10.1523 5.5172C9.94584 5.96691 9.68007 6.24472 9.26465 6.45763L9.16797 6.50743C7.886 7.15938 7.8852 9.08565 9.16797 9.7379V9.73692L9.26465 9.7877C9.32117 9.81668 9.37448 9.84649 9.4248 9.87755C9.15925 10.1605 8.91383 10.4041 8.69922 10.5953L8.41699 10.8316L8.41016 10.8375L8.40723 10.8395C7.95192 11.1966 7.46608 11.5291 6.97168 11.4977H6.96191C6.62005 11.4826 6.11097 11.2427 5.4834 10.7379C4.8759 10.2492 4.22813 9.56987 3.61914 8.80528C3.10456 8.15918 2.62499 7.46089 2.22656 6.78185C2.95879 6.9371 3.77719 6.60964 4.14648 5.79942L4.14551 5.79845L4.20215 5.67735C4.48022 5.07192 4.84394 4.69124 5.40625 4.40294L5.52344 4.34337C6.12091 4.03725 6.48915 3.39984 6.48926 2.72813C6.48925 2.67443 6.48511 2.62108 6.48047 2.56798C6.51127 2.61651 6.54096 2.66422 6.56836 2.71153L7.00098 3.45958L7.43359 2.71251C7.54863 2.51388 7.69286 2.30118 7.87109 2.09825C8.50229 1.37973 9.33581 1.02687 10.3086 1.07188Z" stroke="white"/>
<path d="M2.15863 5.09078L2.21526 5.21408C2.35982 5.53715 2.80886 5.53704 2.95336 5.21408L3.01003 5.09072C3.41356 4.212 3.98892 3.60419 4.82069 3.1779L4.93743 3.1181C5.07882 3.04568 5.1686 2.89424 5.16862 2.72824C5.16862 2.56221 5.07887 2.4108 4.93751 2.33832L4.82071 2.27846C3.98892 1.85217 3.41356 1.24437 3.01 0.365609L2.95336 0.242281C2.80881 -0.080818 2.35974 -0.0807024 2.21526 0.242281L2.15863 0.365638C1.75506 1.24437 1.17968 1.8522 0.347802 2.27849L0.231084 2.33835C0.0897262 2.41083 0 2.56224 0 2.72824C2.73472e-05 2.89424 0.0897809 3.04562 0.231166 3.11807L0.347884 3.17787C1.1797 3.60419 1.75506 4.21203 2.15863 5.09078Z" fill="#FFD700"/>
</svg>
