<svg width="21" height="21" viewBox="0 0 21 21" fill="none" xmlns="http://www.w3.org/2000/svg">
<path d="M6.62602 12.4998C7.07006 14.225 8.6362 15.4998 10.5 15.4998C12.3638 15.4998 13.9299 14.225 14.374 12.4998M9.5177 1.26376L2.73539 6.53888C2.28202 6.89151 2.05534 7.06782 1.89203 7.28862C1.74737 7.4842 1.6396 7.70454 1.57403 7.93881C1.5 8.20328 1.5 8.49046 1.5 9.06486V16.2998C1.5 17.4199 1.5 17.9799 1.71799 18.4078C1.90973 18.7841 2.21569 19.0901 2.59202 19.2818C3.01984 19.4998 3.57989 19.4998 4.7 19.4998H16.3C17.4201 19.4998 17.9802 19.4998 18.408 19.2818C18.7843 19.0901 19.0903 18.7841 19.282 18.4078C19.5 17.9799 19.5 17.4199 19.5 16.2998V9.06486C19.5 8.49046 19.5 8.20328 19.426 7.93881C19.3604 7.70454 19.2526 7.4842 19.108 7.28862C18.9447 7.06782 18.718 6.89151 18.2646 6.53889L11.4823 1.26376C11.131 0.990507 10.9553 0.853877 10.7613 0.801357C10.5902 0.755017 10.4098 0.755017 10.2387 0.801357C10.0447 0.853877 9.869 0.990507 9.5177 1.26376Z" stroke="#B6B1B7" stroke-width="1.5" stroke-linecap="round" stroke-linejoin="round"/>
</svg>
