<svg width="24" height="25" viewBox="0 0 24 25" fill="none" xmlns="http://www.w3.org/2000/svg">
<path d="M16.2 21.5H6.93137C6.32555 21.5 6.02265 21.5 5.88238 21.3802C5.76068 21.2763 5.69609 21.1203 5.70865 20.9608C5.72312 20.7769 5.93731 20.5627 6.36569 20.1343L14.8686 11.6314C15.2646 11.2354 15.4627 11.0373 15.691 10.9632C15.8918 10.8979 16.1082 10.8979 16.309 10.9632C16.5373 11.0373 16.7354 11.2354 17.1314 11.6314L21 15.5V16.7M16.2 21.5C17.8802 21.5 18.7202 21.5 19.362 21.173C19.9265 20.8854 20.3854 20.4265 20.673 19.862C21 19.2202 21 18.3802 21 16.7M16.2 21.5H7.8C6.11984 21.5 5.27976 21.5 4.63803 21.173C4.07354 20.8854 3.6146 20.4265 3.32698 19.862C3 19.2202 3 18.3802 3 16.7V8.3C3 6.61984 3 5.77976 3.32698 5.13803C3.6146 4.57354 4.07354 4.1146 4.63803 3.82698C5.27976 3.5 6.11984 3.5 7.8 3.5H16.2C17.8802 3.5 18.7202 3.5 19.362 3.82698C19.9265 4.1146 20.3854 4.57354 20.673 5.13803C21 5.77976 21 6.61984 21 8.3V16.7M10.5 9C10.5 10.1046 9.60457 11 8.5 11C7.39543 11 6.5 10.1046 6.5 9C6.5 7.89543 7.39543 7 8.5 7C9.60457 7 10.5 7.89543 10.5 9Z" stroke="#19101A" stroke-width="1.5" stroke-linecap="round" stroke-linejoin="round"/>
</svg>
