<svg width="24" height="24" viewBox="0 0 24 24" fill="none" xmlns="http://www.w3.org/2000/svg">
<path d="M14.5358 21.6861C14.5738 21.7807 14.6398 21.8615 14.7251 21.9176C14.8103 21.9737 14.9107 22.0023 15.0126 21.9997C15.1146 21.9971 15.2134 21.9633 15.2956 21.903C15.3779 21.8426 15.4397 21.7586 15.4728 21.6621L21.9728 2.66206C22.0048 2.57345 22.0109 2.47756 21.9904 2.38561C21.9699 2.29366 21.9236 2.20945 21.857 2.14283C21.7904 2.07622 21.7062 2.02995 21.6143 2.00945C21.5223 1.98894 21.4264 1.99505 21.3378 2.02706L2.33781 8.52706C2.2413 8.56015 2.15723 8.62197 2.09688 8.70423C2.03652 8.78648 2.00278 8.88523 2.00016 8.98722C1.99755 9.0892 2.0262 9.18955 2.08226 9.27478C2.13833 9.36002 2.21912 9.42606 2.31381 9.46406L10.2438 12.6441C10.4945 12.7444 10.7223 12.8945 10.9134 13.0853C11.1045 13.2761 11.255 13.5036 11.3558 13.7541L14.5358 21.6861Z" stroke="#19101A" stroke-width="1.5" stroke-linecap="round" stroke-linejoin="round"/>
<path d="M21.8541 2.14697L10.9141 13.086" stroke="#19101A" stroke-width="1.5" stroke-linecap="round" stroke-linejoin="round"/>
</svg>
