<svg width="49" height="56" viewBox="0 0 49 56" fill="none" xmlns="http://www.w3.org/2000/svg">
<g clip-path="url(#clip0_5_69)">
<path fill-rule="evenodd" clip-rule="evenodd" d="M25.383 0.716398C23.8168 1.80413 23.228 3.61971 23.9109 5.25439C24.2174 5.98791 24.6567 6.58789 24.8873 6.58789C25.1203 6.58789 25.307 13.7526 25.307 22.6885C25.307 31.5438 25.4207 38.789 25.5596 38.789C25.6986 38.789 29.9015 36.445 34.8998 33.58C39.8977 30.7151 44.081 28.371 44.1966 28.371C44.3122 28.371 44.4067 30.689 44.4067 33.5222C44.4067 37.0738 44.2214 38.8203 43.8098 39.148C43.4818 39.4094 38.2814 42.4486 32.2536 45.9021L21.2942 52.1818L19.2553 51.1093L17.2169 50.0367L17.0842 28.0921C16.9414 4.55923 17.014 5.23734 14.552 4.50997C13.0919 4.07857 2.49728 10.1485 1.09107 12.2221C0.00334239 13.8265 0 13.8829 0 31.4666C0 47.7812 0.0649395 49.1814 0.86426 50.1607C2.16924 51.759 3.76502 51.4673 8.34655 48.7927C10.6337 47.4577 12.5919 46.3657 12.6984 46.3657C12.8049 46.3657 12.8923 47.4236 12.8923 48.7169C12.8923 50.6376 13.1468 51.3555 14.2803 52.6364C16.2576 54.8697 19.7185 56.4883 21.8003 56.153C24.4256 55.7306 46.3372 42.9927 47.6298 41.1378C48.6282 39.7053 48.7041 39.0888 48.7041 32.4317C48.7041 21.2233 48.1435 20.9827 36.9812 27.4078L29.6045 31.6541V19.2917C29.6045 8.20269 29.688 6.86823 30.4162 6.34023C31.7661 5.36141 31.4843 2.42211 29.912 1.08056C28.3778 -0.228325 26.9128 -0.346239 25.383 0.716398ZM8.3561 12.1289L4.53617 14.4014L4.41059 30.1468C4.34135 38.807 4.37669 45.8922 4.48937 45.8922C4.60158 45.8922 6.48481 44.8689 8.67363 43.6178L12.6535 41.3433L12.7801 27.7322C12.8498 20.2459 12.7423 13.1612 12.5413 11.9887L12.176 9.85678L8.3561 12.1289Z" fill="white"/>
</g>
<defs>
<clipPath id="clip0_5_69">
<rect width="49" height="56" fill="white"/>
</clipPath>
</defs>
</svg>
