<svg width="32" height="26" viewBox="0 0 32 26" fill="none" xmlns="http://www.w3.org/2000/svg">
<path d="M31.4757 16.7311L31.251 16.6221C29.6824 15.8611 28.5973 14.776 27.8362 13.2072L27.7273 12.9827C27.3969 12.2836 26.3704 12.2839 26.0402 12.9827L25.9312 13.2074C25.1702 14.7761 24.0851 15.8611 22.5163 16.6222L22.2918 16.7311C21.5927 17.0615 21.593 18.0881 22.2918 18.4182L22.5164 18.5272C24.0851 19.2882 25.1702 20.3733 25.9312 21.942L26.0402 22.1666C26.3705 22.8657 27.3972 22.8655 27.7273 22.1666L27.8362 21.942C28.5973 20.3733 29.6824 19.2882 31.251 18.5272L31.4756 18.4183C32.1748 18.088 32.1746 17.0613 31.4757 16.7311Z" fill="#FFD700"/>
<path d="M21.4733 20.1054C19.3747 19.0953 19.3756 16.0536 21.473 15.0439L21.6974 14.935C22.8835 14.3596 23.6687 13.5744 24.2438 12.3888L24.353 12.1638C25.3631 10.0657 28.4047 10.0665 29.4142 12.1638L29.5009 12.3425C31.0906 9.18657 30.9037 5.62412 28.4982 3.26651C27.2466 2.04166 25.5125 1.32138 23.6156 1.23843C21.0498 1.12598 18.8082 2.02097 17.1331 3.82601C16.6679 4.32733 16.2953 4.84627 16.0018 5.32595C15.7084 4.84627 15.3358 4.32733 14.8706 3.82601C13.4051 2.24681 11.5074 1.36401 9.33611 1.24331C9.978 2.09248 10.7847 2.73225 11.8371 3.24281L12.1041 3.37233C13.0671 3.8397 13.6891 4.83308 13.6891 5.90315C13.6889 6.97366 13.0666 7.96698 12.1037 8.43397L11.8369 8.56337C10.3144 9.30202 9.30586 10.3106 8.56707 11.8334L8.43743 12.1006C7.42724 14.1986 4.38586 14.1978 3.37623 12.1006L3.24677 11.8338C2.80484 10.9229 2.26527 10.197 1.57812 9.60181C2.65589 14.9824 11.2035 25.765 15.8637 25.9579C17.4906 26.0558 18.9319 25.0398 19.9226 24.3041L19.9389 24.2922C20.8048 23.6559 21.9654 22.5845 23.2014 21.26C22.7846 20.8429 22.2914 20.5023 21.6979 20.2143L21.4733 20.1054Z" fill="#FF5709"/>
<path d="M4.934 11.0149L5.06346 11.2817C5.39387 11.9807 6.42025 11.9805 6.75054 11.2817L6.88006 11.0148C7.80243 9.1135 9.11753 7.7984 11.0187 6.87603L11.2856 6.74664C11.6087 6.58993 11.8139 6.26226 11.814 5.90309C11.814 5.54386 11.6088 5.21626 11.2857 5.05942L11.0188 4.92991C9.11753 4.00754 7.80243 2.69244 6.88 0.791069L6.75054 0.524223C6.42013 -0.174866 5.39368 -0.174616 5.06346 0.524223L4.934 0.791132C4.01157 2.69244 2.6964 4.0076 0.794976 4.92997L0.528192 5.05949C0.205089 5.21632 0 5.54392 0 5.90309C6.25079e-05 6.26226 0.205214 6.58981 0.52838 6.74658L0.795163 6.87597C2.69647 7.7984 4.01157 9.11356 4.934 11.0149Z" fill="#FFD700"/>
</svg>
