<svg width="24" height="26" viewBox="0 0 24 26" fill="none" xmlns="http://www.w3.org/2000/svg">
<path d="M12 25.6934C18.6274 25.6934 24 20.3208 24 13.6934C24 7.06594 18.6274 1.69336 12 1.69336C5.37259 1.69336 0 7.06594 0 13.6934C0 20.3208 5.37259 25.6934 12 25.6934Z" fill="#E18A04"/>
<path d="M12 24.3076C18.6274 24.3076 24 18.935 24 12.3076C24 5.6802 18.6274 0.307617 12 0.307617C5.37259 0.307617 0 5.6802 0 12.3076C0 18.935 5.37259 24.3076 12 24.3076Z" fill="#E4A020"/>
<path d="M12 0.947266C5.37257 0.947266 0 6.31983 0 12.9473C0 19.5747 5.37257 24.9473 12 24.9473C18.6274 24.9473 24 19.5747 24 12.9473C24 6.31983 18.6274 0.947266 12 0.947266ZM12 23.4994C6.17217 23.4994 1.44792 18.7751 1.44792 12.9473C1.44792 7.11943 6.17217 2.39518 12 2.39518C17.8278 2.39518 22.5521 7.11943 22.5521 12.9473C22.5521 18.7751 17.8278 23.4994 12 23.4994Z" fill="#E18A04"/>
<path d="M12 0.307617C5.37257 0.307617 0 5.68018 0 12.3076C0 18.9351 5.37257 24.3076 12 24.3076C18.6274 24.3076 24 18.9351 24 12.3076C24 5.68018 18.6274 0.307617 12 0.307617ZM12 22.8597C6.17217 22.8597 1.44792 18.1355 1.44792 12.3076C1.44792 6.47978 6.17217 1.75553 12 1.75553C17.8278 1.75553 22.5521 6.47978 22.5521 12.3076C22.5521 18.1355 17.8278 22.8597 12 22.8597Z" fill="url(#paint0_linear_120_11822)"/>
<path d="M11.4959 16.553L11.9351 14.3145C11.9518 14.2294 12.0188 14.153 12.1041 14.1222L13.8905 13.4739C13.9758 13.4429 14.0428 13.3666 14.0595 13.2817L14.3786 11.6558C14.4073 11.5105 14.2806 11.4107 14.1347 11.4636L12.6719 11.9946C12.5261 12.0475 12.3995 11.9477 12.4279 11.8024L13.641 5.61945C13.6635 5.50533 13.5892 5.41309 13.475 5.41309H10.244C10.1297 5.41309 10.0188 5.50613 9.99691 5.62044L8.51242 13.3725C8.49612 13.4578 8.42872 13.5348 8.34324 13.5658L6.44523 14.2546C6.35994 14.2857 6.29294 14.362 6.27624 14.4469L5.95715 16.0727C5.92872 16.2181 6.05516 16.3179 6.20109 16.265L7.78816 15.6888C7.93349 15.6361 8.05994 15.7352 8.0323 15.8801L7.37942 19.2894C7.35775 19.4031 7.4319 19.495 7.54562 19.495H17.3391C17.4532 19.495 17.5637 19.4026 17.586 19.2886L18.0416 16.9662C18.0639 16.8521 17.9898 16.7598 17.8756 16.7598H11.6615C11.5478 16.7596 11.4735 16.6672 11.4959 16.553Z" fill="#E18A04"/>
<path d="M11.0994 16.056L11.5386 13.8174C11.5553 13.7323 11.6223 13.656 11.7076 13.6252L13.4941 12.9769C13.5794 12.9458 13.6464 12.8695 13.6631 12.7846L13.9821 11.1588C14.0108 11.0134 13.8841 10.9136 13.7382 10.9665L12.2754 11.4975C12.1297 11.5504 12.003 11.4506 12.0314 11.3053L13.2446 5.12238C13.267 5.00826 13.1927 4.91602 13.0786 4.91602H9.84755C9.73323 4.91602 9.6223 5.00906 9.60043 5.12337L8.11593 12.8755C8.09963 12.9607 8.03224 13.0377 7.94675 13.0687L6.04874 13.7576C5.96345 13.7886 5.89645 13.8649 5.87975 13.9498L5.56067 15.5757C5.53224 15.721 5.65868 15.8208 5.8046 15.7679L7.39168 15.1918C7.53701 15.1391 7.66345 15.2381 7.63582 15.383L6.98293 18.7924C6.96126 18.9061 7.03542 18.9979 7.14913 18.9979H16.9426C17.0567 18.9979 17.1672 18.9055 17.1895 18.7916L17.6452 16.4691C17.6674 16.355 17.5933 16.2627 17.4792 16.2627H11.265C11.1513 16.2625 11.077 16.1701 11.0994 16.056Z" fill="url(#paint1_linear_120_11822)"/>
<path opacity="0.15" d="M11.9997 12.3076C16.4413 12.3076 20.319 9.8943 22.3939 6.30762C20.319 2.72094 16.4415 0.307617 11.9997 0.307617C7.55795 0.307617 3.68042 2.72094 1.60547 6.30762C3.68042 9.8943 7.55815 12.3076 11.9997 12.3076Z" fill="white"/>
<defs>
<linearGradient id="paint0_linear_120_11822" x1="2.97392" y1="29.7711" x2="13.9784" y2="8.47985" gradientUnits="userSpaceOnUse">
<stop stop-color="#FFA100"/>
<stop offset="1" stop-color="#FFD800"/>
</linearGradient>
<linearGradient id="paint1_linear_120_11822" x1="11.6031" y1="22.7908" x2="11.6031" y2="5.47625" gradientUnits="userSpaceOnUse">
<stop stop-color="#FFA100"/>
<stop offset="1" stop-color="#FFD800"/>
</linearGradient>
</defs>
</svg>
