<svg width="32" height="20" viewBox="0 0 32 20" fill="none" xmlns="http://www.w3.org/2000/svg">
<path d="M10 20C15.5228 20 20 15.5228 20 10C20 4.47715 15.5228 0 10 0C4.47715 0 0 4.47715 0 10C0 15.5228 4.47715 20 10 20Z" fill="#F93232"/>
<path d="M22 0C19.754 0 17.688 0.75 16.02 2H16V2.014C15.604 2.312 15.24 2.648 14.893 3H17.107C17.415 3.313 17.699 3.648 17.962 4H14.03C13.788 4.319 13.566 4.652 13.363 5H18.627C18.815 5.324 18.992 5.654 19.145 6H12.854C12.711 6.325 12.585 6.658 12.477 7H19.521C19.625 7.326 19.707 7.661 19.779 8H12.216C12.149 8.328 12.093 8.66 12.059 9H19.94C19.979 9.328 20 9.661 20 10H12C12 10.339 12.027 10.67 12.06 11H19.942C19.904 11.339 19.849 11.672 19.78 12H12.217C12.286 12.341 12.375 12.673 12.478 13H19.522C19.414 13.342 19.288 13.675 19.145 14H12.854C13.005 14.344 13.175 14.678 13.363 15H18.627C18.425 15.348 18.2 15.681 17.958 16H14.03C14.296 16.352 14.583 16.687 14.892 17H17.107C16.759 17.353 16.396 17.688 16 17.986C17.672 19.245 19.745 20 22 20C27.523 20 32 15.522 32 10C32 4.478 27.523 0 22 0Z" fill="#FED049"/>
</svg>
