<svg width="46" height="47" viewBox="0 0 46 47" fill="none" xmlns="http://www.w3.org/2000/svg">
<rect y="0.964355" width="46" height="46" rx="23" fill="white" fill-opacity="0.3"/>
<path d="M23 24.9644C23.5523 24.9644 24 24.5167 24 23.9644C24 23.4121 23.5523 22.9644 23 22.9644C22.4477 22.9644 22 23.4121 22 23.9644C22 24.5167 22.4477 24.9644 23 24.9644Z" stroke="white" stroke-width="2" stroke-linecap="round" stroke-linejoin="round"/>
<path d="M30 24.9644C30.5523 24.9644 31 24.5167 31 23.9644C31 23.4121 30.5523 22.9644 30 22.9644C29.4477 22.9644 29 23.4121 29 23.9644C29 24.5167 29.4477 24.9644 30 24.9644Z" stroke="white" stroke-width="2" stroke-linecap="round" stroke-linejoin="round"/>
<path d="M16 24.9644C16.5523 24.9644 17 24.5167 17 23.9644C17 23.4121 16.5523 22.9644 16 22.9644C15.4477 22.9644 15 23.4121 15 23.9644C15 24.5167 15.4477 24.9644 16 24.9644Z" stroke="white" stroke-width="2" stroke-linecap="round" stroke-linejoin="round"/>
</svg>
