<svg width="88" height="88" viewBox="0 0 88 88" fill="none" xmlns="http://www.w3.org/2000/svg">
<g clip-path="url(#clip0_144_1245)">
<path d="M22.9177 7.58822L74.0597 13.9643C81.316 14.8689 86.4484 21.4809 85.5456 28.7221L80.4889 69.2819C79.5842 76.5382 72.9723 81.6706 65.7311 80.7678L14.5891 74.3917C7.34604 73.5041 2.19856 66.8903 3.10134 59.6491L8.15995 19.0741C9.06274 11.8329 15.6765 6.68544 22.9177 7.58822Z" fill="#EDE5F4"/>
<path d="M18.0252 11.1233L21.5778 11.5662C22.6965 11.7057 23.5055 12.7277 23.3642 13.8615L22.9213 17.4141C22.7818 18.5328 21.7598 19.3418 20.626 19.2005L17.0734 18.7576C15.9547 18.6181 15.1457 17.5961 15.287 16.4623L15.7299 12.9097C15.8864 11.7778 16.9065 10.9839 18.0252 11.1233Z" fill="#8C37C3" fill-opacity="0.2"/>
<path d="M32.1141 12.8799L35.6667 13.3228C36.7853 13.4623 37.5944 14.4843 37.4531 15.6181L37.0101 19.1707C36.8707 20.2894 35.8487 21.0984 34.7149 20.9571L31.1623 20.5142C30.0436 20.3747 29.2345 19.3527 29.3759 18.2189L29.8188 14.6663C29.9753 13.5344 30.9954 12.7404 32.1141 12.8799Z" fill="#8C37C3" fill-opacity="0.2"/>
<path d="M46.2039 14.6365L49.7565 15.0794C50.8752 15.2188 51.6843 16.2409 51.5429 17.3747L51.1 20.9272C50.9605 22.0459 49.9385 22.855 48.8047 22.7136L45.2521 22.2707C44.1335 22.1313 43.3244 21.1092 43.4657 19.9754L43.9086 16.4229C44.0651 15.291 45.0852 14.497 46.2039 14.6365Z" fill="#8C37C3" fill-opacity="0.2"/>
<path d="M60.3084 16.3949L63.861 16.8378C64.9797 16.9773 65.7888 17.9993 65.6474 19.1331L65.2045 22.6857C65.065 23.8044 64.043 24.6134 62.9092 24.4721L59.3566 24.0292C58.2379 23.8897 57.4289 22.8677 57.5702 21.7339L58.0131 18.1813C58.1545 17.0475 59.1746 16.2536 60.3084 16.3949Z" fill="#8C37C3" fill-opacity="0.2"/>
<path d="M74.3973 18.1515L77.9499 18.5944C79.0685 18.7339 79.8776 19.7559 79.7363 20.8897L79.2934 24.4423C79.1539 25.5609 78.1319 26.37 76.9981 26.2287L73.4455 25.7857C72.3268 25.6463 71.5177 24.6243 71.6591 23.4905L72.102 19.9379C72.2434 18.8041 73.2635 18.0101 74.3973 18.1515Z" fill="#8C37C3" fill-opacity="0.2"/>
<path d="M11.6619 62.1595L15.2145 62.6024C16.3332 62.7418 17.1423 63.7639 17.0009 64.8977L16.558 68.4502C16.4185 69.5689 15.3965 70.378 14.2627 70.2366L10.7101 69.7937C9.59146 69.6543 8.78239 68.6322 8.92374 67.4984L9.36854 63.9308C9.52313 62.814 10.5433 62.02 11.6619 62.1595Z" fill="#8C37C3" fill-opacity="0.2"/>
<path d="M25.7518 63.916L29.3044 64.3589C30.423 64.4984 31.2321 65.5204 31.0908 66.6542L30.6478 70.2068C30.5084 71.3255 29.4864 72.1346 28.3526 71.9932L24.8 71.5503C23.6813 71.4108 22.8722 70.3888 23.0136 69.255L23.4584 65.6873C23.613 64.5705 24.6331 63.7766 25.7518 63.916Z" fill="#8C37C3" fill-opacity="0.2"/>
<path d="M39.8406 65.6726L43.3932 66.1155C44.5119 66.255 45.321 67.277 45.1796 68.4108L44.7367 71.9634C44.5972 73.0821 43.5752 73.8911 42.4414 73.7498L38.8889 73.3069C37.7702 73.1674 36.9611 72.1454 37.1025 71.0116L37.5473 67.4439C37.7018 66.3271 38.722 65.5331 39.8406 65.6726Z" fill="#8C37C3" fill-opacity="0.2"/>
<path d="M53.9451 67.4311L57.4977 67.874C58.6164 68.0134 59.4255 69.0354 59.2841 70.1692L58.8412 73.7218C58.7017 74.8405 57.6797 75.6496 56.5459 75.5082L52.9933 75.0653C51.8747 74.9258 51.0656 73.9038 51.2069 72.77L51.6517 69.2023C51.7912 68.0837 52.8113 67.2897 53.9451 67.4311Z" fill="#8C37C3" fill-opacity="0.2"/>
<path d="M68.035 69.1876L71.5876 69.6305C72.7062 69.77 73.5153 70.792 73.374 71.9258L72.931 75.4784C72.7916 76.5971 71.7696 77.4061 70.6358 77.2648L67.0832 76.8219C65.9645 76.6824 65.1554 75.6604 65.2968 74.5266L65.7416 70.9589C65.8811 69.8402 66.9012 69.0463 68.035 69.1876Z" fill="#8C37C3" fill-opacity="0.2"/>
<path d="M57.0413 40.014L42.2403 28.8191C38.1993 25.7668 32.35 28.2309 31.7223 33.2649L29.4267 51.6779C28.7991 56.7119 33.8645 60.5367 38.5311 58.57L55.6277 51.352C60.2963 49.3702 61.0803 43.0814 57.0413 40.014Z" fill="#8C37C3" fill-opacity="0.2"/>
</g>
<defs>
<clipPath id="clip0_144_1245">
<rect width="78" height="78" fill="white" transform="translate(10.4551 0.661217) rotate(7.10659)"/>
</clipPath>
</defs>
</svg>
