<svg width="88" height="88" viewBox="0 0 88 88" fill="none" xmlns="http://www.w3.org/2000/svg">
<g clip-path="url(#clip0_144_1228)">
<path d="M13.9404 13.5607L65.0563 6.97903C72.3089 6.04518 78.9282 11.168 79.8601 18.4055L85.08 58.9446C86.0138 66.1973 80.891 72.8166 73.6535 73.7485L22.5376 80.3302C15.3021 81.2772 8.6676 76.1564 7.73569 68.9189L2.51391 28.3646C1.582 21.1271 6.70284 14.4926 13.9404 13.5607Z" fill="#EDE6F5"/>
<path d="M10.0837 18.2045L13.6345 17.7473C14.7526 17.6034 15.791 18.3913 15.937 19.5245L16.3942 23.0753C16.5381 24.1934 15.7502 25.2318 14.617 25.3777L11.0662 25.8349C9.94812 25.9789 8.9097 25.191 8.76379 24.0578L8.30659 20.507C8.17579 19.3718 8.96563 18.3485 10.0837 18.2045Z" fill="#8C37C3" fill-opacity="0.2"/>
<path d="M24.1658 16.3913L27.7165 15.9341C28.8347 15.7901 29.8731 16.5781 30.019 17.7113L30.4762 21.262C30.6202 22.3802 29.8323 23.4186 28.699 23.5645L25.1483 24.0217C24.0302 24.1657 22.9917 23.3777 22.8458 22.2445L22.3886 18.6938C22.2578 17.5586 23.0477 16.5353 24.1658 16.3913Z" fill="#8C37C3" fill-opacity="0.2"/>
<path d="M38.2478 14.5781L41.7986 14.1209C42.9167 13.9769 43.9551 14.7648 44.101 15.898L44.5582 19.4488C44.7022 20.5669 43.9143 21.6053 42.7811 21.7513L39.2303 22.2084C38.1122 22.3524 37.0738 21.5645 36.9279 20.4313L36.4707 16.8805C36.3398 15.7454 37.1297 14.7221 38.2478 14.5781Z" fill="#8C37C3" fill-opacity="0.2"/>
<path d="M52.3455 12.7629L55.8962 12.3057C57.0143 12.1617 58.0528 12.9496 58.1987 14.0829L58.6559 17.6336C58.7998 18.7517 58.0119 19.7902 56.8787 19.9361L53.328 20.3933C52.2098 20.5372 51.1714 19.7493 51.0255 18.6161L50.5683 15.0654C50.4224 13.9321 51.2122 12.9088 52.3455 12.7629Z" fill="#8C37C3" fill-opacity="0.2"/>
<path d="M66.4275 10.9497L69.9783 10.4925C71.0964 10.3485 72.1348 11.1364 72.2807 12.2696L72.7379 15.8204C72.8819 16.9385 72.094 17.9769 70.9608 18.1228L67.41 18.58C66.2919 18.724 65.2535 17.9361 65.1075 16.8029L64.6503 13.2521C64.5044 12.1189 65.2943 11.0956 66.4275 10.9497Z" fill="#8C37C3" fill-opacity="0.2"/>
<path d="M16.6521 69.2147L20.2029 68.7575C21.321 68.6135 22.3594 69.4014 22.5053 70.5346L22.9625 74.0854C23.1065 75.2035 22.3186 76.2419 21.1854 76.3878L17.6346 76.845C16.5165 76.989 15.4781 76.2011 15.3321 75.0679L14.873 71.502C14.7441 70.382 15.534 69.3586 16.6521 69.2147Z" fill="#8C37C3" fill-opacity="0.2"/>
<path d="M30.7341 67.4014L34.2849 66.9442C35.403 66.8003 36.4414 67.5882 36.5873 68.7214L37.0445 72.2722C37.1885 73.3903 36.4006 74.4287 35.2674 74.5746L31.7166 75.0318C30.5985 75.1758 29.5601 74.3879 29.4142 73.2547L28.955 69.6888C28.8262 68.5687 29.616 67.5454 30.7341 67.4014Z" fill="#8C37C3" fill-opacity="0.2"/>
<path d="M44.8162 65.5882L48.3669 65.131C49.485 64.987 50.5235 65.7749 50.6694 66.9082L51.1266 70.4589C51.2705 71.577 50.4826 72.6155 49.3494 72.7614L45.7987 73.2186C44.6805 73.3626 43.6421 72.5746 43.4962 71.4414L43.0371 67.8756C42.9082 66.7555 43.6981 65.7322 44.8162 65.5882Z" fill="#8C37C3" fill-opacity="0.2"/>
<path d="M58.9138 63.773L62.4646 63.3158C63.5827 63.1719 64.6211 63.9598 64.767 65.093L65.2242 68.6438C65.3682 69.7619 64.5803 70.8003 63.4471 70.9462L59.8963 71.4034C58.7782 71.5474 57.7398 70.7595 57.5939 69.6263L57.1347 66.0604C56.9908 64.9423 57.7806 63.919 58.9138 63.773Z" fill="#8C37C3" fill-opacity="0.2"/>
<path d="M72.9959 61.9598L76.5466 61.5026C77.6647 61.3586 78.7032 62.1465 78.8491 63.2798L79.3063 66.8305C79.4502 67.9486 78.6623 68.9871 77.5291 69.133L73.9783 69.5902C72.8602 69.7341 71.8218 68.9462 71.6759 67.813L71.2168 64.2471C71.0728 63.129 71.8626 62.1057 72.9959 61.9598Z" fill="#8C37C3" fill-opacity="0.2"/>
<path d="M55.0725 36.4504L37.947 29.3011C33.2725 27.3532 28.2226 31.1984 28.8704 36.2299L31.2401 54.6334C31.8879 59.6649 37.7472 62.1054 41.7758 59.0369L56.5316 47.7826C60.5583 44.699 59.749 38.4134 55.0725 36.4504Z" fill="#8C37C3" fill-opacity="0.2"/>
</g>
<defs>
<clipPath id="clip0_144_1228">
<rect width="78" height="78" fill="white" transform="translate(0.144531 9.96107) rotate(-7.33706)"/>
</clipPath>
</defs>
</svg>
