<svg width="93" height="93" viewBox="0 0 93 93" fill="none" xmlns="http://www.w3.org/2000/svg">
<path d="M38.8353 92.356C45.7757 92.356 51.5833 87.4103 52.9169 80.856H24.748C26.0873 87.4103 31.8892 92.356 38.8353 92.356Z" fill="#EDE5F4"/>
<path d="M67.873 55.9243C67.7747 55.9243 67.6779 55.9412 67.5796 55.9412C50.6693 55.9412 36.9148 42.181 36.9148 25.2764C36.9148 18.6349 39.0598 12.4947 42.6648 7.46906V4.19116C42.6648 2.07001 40.9507 0.355957 38.8352 0.355957C36.7197 0.355957 35 2.07001 35 4.19116V8.33099C22.0162 10.1995 12 21.3668 12 34.856V45.5446C12 53.1293 8.67719 60.2888 2.84576 65.2217C1.35632 66.4978 0.5 68.355 0.5 70.3162C0.5 74.0138 3.50696 77.0264 7.21021 77.0264H70.4602C74.1578 77.0264 77.1704 74.0194 77.1704 70.3162C77.1704 68.355 76.3141 66.4978 74.7896 65.1923C71.7601 62.6345 69.4312 59.4549 67.873 55.9243Z" fill="#8C37C3" fill-opacity="0.2"/>
<path d="M67.5857 0.355957C53.8494 0.355957 42.6709 11.5345 42.6709 25.2708C42.6709 39.007 53.8494 50.1855 67.5857 50.1855C81.322 50.1855 92.5005 39.0126 92.5005 25.2708C92.5005 11.5289 81.322 0.355957 67.5857 0.355957ZM71.4153 33.8958C71.4153 35.4821 70.1266 36.7708 68.5403 36.7708C66.9526 36.7708 65.6653 35.4821 65.6653 33.8958V21.4355H63.7505C62.1642 21.4355 60.8755 20.1469 60.8755 18.5605C60.8755 16.9728 62.1642 15.6855 63.7505 15.6855H68.5403C70.1266 15.6855 71.4153 16.9728 71.4153 18.5605V33.8958Z" fill="#EDE5F4"/>
</svg>
