<svg width="93" height="93" viewBox="0 0 93 93" fill="none" xmlns="http://www.w3.org/2000/svg">
<path d="M34.9993 8.02256C24.956 8.02256 16.791 16.1876 16.791 26.2309C16.791 36.0826 24.496 44.0559 34.5394 44.4009C34.846 44.3626 35.1527 44.3626 35.3827 44.4009H35.5743H35.651C45.4643 44.0559 53.1693 36.0826 53.2077 26.2309C53.2077 16.1876 45.0427 8.02256 34.9993 8.02256Z" fill="#EDE5F4"/>
<path d="M54.4764 54.5972C43.7814 47.4672 26.3399 47.4672 15.5683 54.5972C10.6999 57.8555 8.0166 62.2638 8.0166 66.9788C8.0166 71.6938 10.6999 76.0638 15.5299 79.2838C20.8966 82.8872 27.9499 84.6889 35.0033 84.6889C42.0564 84.6889 49.1098 82.8872 54.4764 79.2838C59.3064 76.0255 61.9898 71.6555 61.9898 66.9022C61.9514 62.1872 59.3064 57.8172 54.4764 54.5972Z" fill="#8C37C3" fill-opacity="0.2"/>
<path d="M77.1259 28.4929C77.7393 35.9296 72.4493 42.4463 65.1276 43.3279C65.0893 43.3279 65.0893 43.3279 65.0509 43.3279H64.9359C64.7059 43.3279 64.4759 43.3279 64.2843 43.4046C60.5659 43.5963 57.1543 42.4079 54.5859 40.2229C58.5343 36.6963 60.7959 31.4063 60.3359 25.6563C60.0676 22.5513 58.9943 19.7146 57.3843 17.2996C58.8409 16.5713 60.5276 16.1113 62.2526 15.9579C69.7659 15.3063 76.4743 20.9029 77.1259 28.4929Z" fill="#EDE5F4"/>
<path d="M84.7956 63.9505C84.4889 67.6688 82.1122 70.8888 78.1256 73.0738C74.2922 75.1822 69.4622 76.1788 64.6706 76.0638C67.4306 73.5722 69.0406 70.4672 69.3472 67.1705C69.7306 62.4172 67.4689 57.8555 62.9456 54.2138C60.3772 52.1822 57.3872 50.5722 54.1289 49.3838C62.6006 46.9305 73.2572 48.5788 79.8122 53.8688C83.3389 56.7055 85.1406 60.2705 84.7956 63.9505Z" fill="#8C37C3" fill-opacity="0.2"/>
</svg>
