<svg width="34" height="35" viewBox="0 0 34 35" fill="none" xmlns="http://www.w3.org/2000/svg">
<g clip-path="url(#clip0_25_116430)">
<path d="M17.6283 18.1802H16.3719C13.1131 18.184 9.98879 19.4802 7.68445 21.7845C5.38011 24.0889 4.08386 27.2132 4.08008 30.472V31.2396C4.08114 32.1041 4.425 32.9328 5.03624 33.544C5.64748 34.1553 6.4762 34.4991 7.34062 34.5002H26.6595C27.524 34.4992 28.3528 34.1554 28.964 33.5441C29.5753 32.9329 29.9191 32.1041 29.9201 31.2396V30.472C29.9163 27.2132 28.62 24.0889 26.3157 21.7845C24.0114 19.4802 20.8871 18.184 17.6283 18.1802Z" fill="#8C37C3"/>
<path d="M17.0005 15.46C21.1316 15.46 24.4805 12.1111 24.4805 7.98C24.4805 3.84891 21.1316 0.5 17.0005 0.5C12.8694 0.5 9.52051 3.84891 9.52051 7.98C9.52051 12.1111 12.8694 15.46 17.0005 15.46Z" fill="#8C37C3"/>
</g>
<defs>
<clipPath id="clip0_25_116430">
<rect width="34" height="34" fill="white" transform="translate(0 0.5)"/>
</clipPath>
</defs>
</svg>
