<svg width="24" height="24" viewBox="0 0 24 24" fill="none" xmlns="http://www.w3.org/2000/svg">
<path d="M15.5625 5.2002H21.2142" stroke="#8C37C3" stroke-width="1.41291" stroke-linecap="round" stroke-linejoin="round"/>
<path d="M18.3867 2.37402V8.02567" stroke="#8C37C3" stroke-width="1.41291" stroke-linecap="round" stroke-linejoin="round"/>
<path d="M20.2714 11.3229V18.3875C20.2714 18.8871 20.0729 19.3663 19.7196 19.7196C19.3663 20.0729 18.8871 20.2714 18.3875 20.2714H5.20029C4.70065 20.2714 4.22148 20.0729 3.86818 19.7196C3.51489 19.3663 3.31641 18.8871 3.31641 18.3875V5.20029C3.31641 4.70065 3.51489 4.22148 3.86818 3.86818C4.22148 3.51489 4.70065 3.31641 5.20029 3.31641H12.2649" stroke="#8C37C3" stroke-width="1.41291" stroke-linecap="round" stroke-linejoin="round"/>
<path d="M20.2717 14.6195L17.3649 11.7127C17.0116 11.3595 16.5325 11.1611 16.033 11.1611C15.5334 11.1611 15.0543 11.3595 14.7011 11.7127L6.14258 20.2712" stroke="#8C37C3" stroke-width="1.41291" stroke-linecap="round" stroke-linejoin="round"/>
<path d="M8.96787 10.8518C10.0083 10.8518 10.8518 10.0083 10.8518 8.96787C10.8518 7.92743 10.0083 7.08398 8.96787 7.08398C7.92743 7.08398 7.08398 7.92743 7.08398 8.96787C7.08398 10.0083 7.92743 10.8518 8.96787 10.8518Z" stroke="#8C37C3" stroke-width="1.41291" stroke-linecap="round" stroke-linejoin="round"/>
</svg>
