<svg width="24" height="24" viewBox="0 0 24 24" fill="none" xmlns="http://www.w3.org/2000/svg">
<path d="M8.03196 11.9992L10.016 13.9832L14.976 9.0232M19.526 14.2952L20.419 13.4022C20.6032 13.218 20.7494 12.9992 20.8491 12.7585C20.9488 12.5178 21.0002 12.2598 21.0002 11.9992C21.0002 11.7386 20.9488 11.4806 20.8491 11.2399C20.7494 10.9992 20.6032 10.7804 20.419 10.5962L19.526 9.7032C19.3416 9.51908 19.1953 9.30037 19.0956 9.05961C18.9959 8.81886 18.9447 8.56078 18.945 8.3002V7.0392C18.945 6.51301 18.7359 6.00837 18.3639 5.6363C17.9918 5.26423 17.4871 5.0552 16.961 5.0552H15.699C15.4384 5.05544 15.1803 5.00425 14.9395 4.90455C14.6988 4.80485 14.4801 4.6586 14.296 4.4742L13.403 3.5812C13.2187 3.39694 13 3.25077 12.7593 3.15105C12.5185 3.05133 12.2605 3 12 3C11.7394 3 11.4814 3.05133 11.2406 3.15105C10.9999 3.25077 10.7812 3.39694 10.597 3.5812L9.70396 4.4742C9.51984 4.6586 9.30113 4.80485 9.06037 4.90455C8.81961 5.00425 8.56154 5.05544 8.30096 5.0552H7.03996C6.77933 5.05507 6.52123 5.10629 6.28041 5.20594C6.03958 5.30558 5.82075 5.4517 5.63641 5.63595C5.45207 5.82019 5.30584 6.03895 5.20607 6.27973C5.10631 6.5205 5.05496 6.77857 5.05496 7.0392V8.3012C5.05496 8.8282 4.84596 9.3322 4.47396 9.7042L3.58096 10.5972C3.39669 10.7814 3.25053 11.0002 3.15081 11.2409C3.05108 11.4816 2.99976 11.7396 2.99976 12.0002C2.99976 12.2608 3.05108 12.5188 3.15081 12.7595C3.25053 13.0002 3.39669 13.219 3.58096 13.4032L4.47396 14.2962C4.84596 14.6682 5.05496 15.1722 5.05496 15.6992V16.9612C5.05496 17.4874 5.26398 17.992 5.63606 18.3641C6.00813 18.7362 6.51277 18.9452 7.03896 18.9452H8.30096C8.82796 18.9452 9.33196 19.1542 9.70396 19.5262L10.597 20.4192C10.7812 20.6035 10.9999 20.7496 11.2406 20.8494C11.4814 20.9491 11.7394 21.0004 12 21.0004C12.2605 21.0004 12.5185 20.9491 12.7593 20.8494C13 20.7496 13.2187 20.6035 13.403 20.4192L14.296 19.5262C14.6691 19.1556 15.1731 18.9469 15.699 18.9452H16.961C17.4871 18.9452 17.9918 18.7362 18.3639 18.3641C18.7359 17.992 18.945 17.4874 18.945 16.9612V15.6992C18.945 15.1722 19.154 14.6672 19.526 14.2952Z" stroke="#383639" stroke-width="2" stroke-linecap="round" stroke-linejoin="round"/>
</svg>
