<svg width="91" height="65" viewBox="0 0 91 65" fill="none" xmlns="http://www.w3.org/2000/svg">
<rect x="14.9476" y="13.8052" width="61.1123" height="36.9211" rx="5.63146" fill="#E1E4F2" fill-opacity="0.4"/>
<rect x="14.9476" y="13.8052" width="61.1123" height="36.9211" rx="5.63146" stroke="#CBA5E4" stroke-width="1.93269"/>
<path d="M33.0415 32.2655C36.2213 32.2655 38.5668 29.92 38.5668 26.7402C38.5668 23.5603 36.2213 21.2148 33.0415 21.2148C29.8617 21.2148 27.5162 23.5603 27.5162 26.7402C27.5162 29.92 29.8589 32.2655 33.0415 32.2655Z" fill="#CBA5E4"/>
<path d="M33.0416 34.3376C38.6746 34.3376 43.3048 38.2384 43.3048 42.0343V43.3162H22.7783V42.0343C22.7783 38.2384 27.4085 34.3376 33.0416 34.3376Z" fill="#CBA5E4"/>
<rect x="49.9027" y="20.9033" width="19.0603" height="5.13163" fill="#CBA5E4"/>
<rect x="52.8351" y="29.7002" width="16.128" height="5.13163" fill="#CBA5E4"/>
<rect x="57.9669" y="38.4961" width="10.9963" height="5.13163" fill="#CBA5E4"/>
<path d="M1.24481 19.6057V9.06983C1.24481 4.74836 4.74806 1.24512 9.06953 1.24512H16.8469" stroke="#CBA5E4" stroke-width="2.48968" stroke-linecap="round"/>
<path d="M89.4442 19.6057V9.06983C89.4442 4.74836 85.941 1.24512 81.6195 1.24512H73.8422" stroke="#CBA5E4" stroke-width="2.48968" stroke-linecap="round"/>
<path d="M89.4445 44.408V54.9438C89.4445 59.2653 85.9413 62.7686 81.6198 62.7686H73.8425" stroke="#CBA5E4" stroke-width="2.48968" stroke-linecap="round"/>
<path d="M1.24518 44.408V54.9438C1.24518 59.2653 4.74842 62.7686 9.0699 62.7686H16.8472" stroke="#CBA5E4" stroke-width="2.48968" stroke-linecap="round"/>
</svg>
