<svg width="32" height="33" viewBox="0 0 32 33" fill="none" xmlns="http://www.w3.org/2000/svg">
<g clip-path="url(#clip0_25_116390)">
<path d="M20.6826 8.88629L7.94502 9.65084C-0.614504 10.1586 -1.76626 14.4571 5.39261 19.1766L7.5572 20.6058C8.18587 21.028 8.57921 21.7093 8.63053 22.4648L8.77927 25.0425C9.28707 33.602 13.5739 34.7604 18.305 27.5949L25.3359 16.9461C28.49 12.1691 26.3966 8.54331 20.6826 8.88629ZM19.7796 15.9356L13.5442 19.5356C13.0708 19.8089 12.4515 19.643 12.1782 19.1695C11.9048 18.6961 12.0708 18.0768 12.5442 17.8035L18.7796 14.2035C19.253 13.9302 19.8723 14.0961 20.1456 14.5695C20.4189 15.043 20.253 15.6622 19.7796 15.9356Z" fill="white"/>
</g>
<defs>
<clipPath id="clip0_25_116390">
<rect width="32" height="32" fill="white" transform="translate(0 0.964355)"/>
</clipPath>
</defs>
</svg>
