<svg width="20" height="20" viewBox="0 0 20 20" fill="none" xmlns="http://www.w3.org/2000/svg">
<path d="M14.292 10.832H10.8337C10.5975 10.832 10.3998 10.752 10.2403 10.592C10.0809 10.432 10.0009 10.2343 10.0003 9.9987C9.99977 9.76314 10.0798 9.56537 10.2403 9.40537C10.4009 9.24537 10.5987 9.16537 10.8337 9.16537H14.292L13.5628 8.41537C13.41 8.26259 13.3337 8.07175 13.3337 7.84287C13.3337 7.61398 13.417 7.41592 13.5837 7.2487C13.7364 7.09592 13.9309 7.01953 14.167 7.01953C14.4031 7.01953 14.5975 7.09592 14.7503 7.2487L16.917 9.41537C17.0837 9.58203 17.167 9.77648 17.167 9.9987C17.167 10.2209 17.0837 10.4154 16.917 10.582L14.7503 12.7487C14.5975 12.9015 14.4067 12.9815 14.1778 12.9887C13.9489 12.9959 13.7509 12.9159 13.5837 12.7487C13.4309 12.5959 13.3509 12.4051 13.3437 12.1762C13.3364 11.9473 13.4095 11.7493 13.5628 11.582L14.292 10.832ZM5.83366 19.1654C5.37533 19.1654 4.9831 19.0023 4.65699 18.6762C4.33088 18.3501 4.16755 17.9576 4.16699 17.4987V2.4987C4.16699 2.04036 4.33033 1.64814 4.65699 1.32203C4.98366 0.99592 5.37588 0.832587 5.83366 0.832031H14.167C14.6253 0.832031 15.0178 0.995365 15.3445 1.32203C15.6712 1.6487 15.8342 2.04092 15.8337 2.4987V4.9987C15.8337 5.23481 15.7537 5.43287 15.5937 5.59287C15.4337 5.75287 15.2359 5.83259 15.0003 5.83203C14.7648 5.83148 14.567 5.75148 14.407 5.59203C14.247 5.43259 14.167 5.23481 14.167 4.9987H5.83366V14.9987H14.167C14.167 14.7626 14.247 14.5648 14.407 14.4054C14.567 14.2459 14.7648 14.1659 15.0003 14.1654C15.2359 14.1648 15.4339 14.2448 15.5945 14.4054C15.755 14.5659 15.8348 14.7637 15.8337 14.9987V17.4987C15.8337 17.957 15.6706 18.3495 15.3445 18.6762C15.0184 19.0029 14.6259 19.1659 14.167 19.1654H5.83366Z" fill="#383639"/>
</svg>
