<svg width="390" height="844" viewBox="0 0 390 844" fill="none" xmlns="http://www.w3.org/2000/svg">
<g clip-path="url(#clip0_5_19)">
<rect width="390" height="844" fill="url(#paint0_linear_5_19)"/>
<g opacity="0.05">
<path d="M74 0V845" stroke="#F8F9FB"/>
<path d="M155 0V845" stroke="#F8F9FB"/>
<path d="M236 0V845" stroke="#F8F9FB"/>
<path d="M317 0V845" stroke="#F8F9FB"/>
<path d="M616 36.5L-225 36.4999" stroke="#F8F9FB"/>
<path d="M616 113.5L-225 113.5" stroke="#F8F9FB"/>
<path d="M616 190.5L-225 190.5" stroke="#F8F9FB"/>
<path d="M616 267.5L-225 267.5" stroke="#F8F9FB"/>
<path d="M616 344.5L-225 344.5" stroke="#F8F9FB"/>
<path d="M616 421.5L-225 421.5" stroke="#F8F9FB"/>
<path d="M616 498.5L-225 498.5" stroke="#F8F9FB"/>
<path d="M616 575.5H-225" stroke="#F8F9FB"/>
<path d="M616 652.5H-225" stroke="#F8F9FB"/>
<path d="M616 729.5H-225" stroke="#F8F9FB"/>
<path d="M616 806.5H-225" stroke="#F8F9FB"/>
</g>
<g opacity="0.5">
<path d="M485.135 603.317C478.525 634.429 484.679 670.443 488.022 706.494C488.554 712.42 488.706 718.536 487.832 724.387C481.678 765.49 482.817 806.404 487.262 847.698C489.465 868.212 486.047 889.486 483.843 910.265C482.514 922.65 472.561 928.234 457.745 930.437C421.428 935.832 385.49 931.121 349.401 928.12C335.991 927.018 322.125 928.234 308.791 930.475C274.07 936.326 239.88 930.513 205.424 928.006C192.622 927.094 179.592 928.804 166.676 929.412C161.015 929.678 155.393 930.513 149.733 930.513C135.525 930.513 123.634 919.914 125.534 905.935C130.814 866.502 126.142 827.564 122.153 788.512C121.697 783.953 122.343 779.166 123.026 774.608C129.067 734.834 127.851 695.249 123.672 655.247C121.469 634.049 124.774 612.168 126.901 590.704C128.117 578.472 138.374 572.812 153.076 570.57C189.773 564.948 225.976 570.039 262.445 572.964C275.513 574.027 289.075 572.698 302.067 570.532C336.789 564.72 370.979 570.38 405.396 572.964C417.553 573.875 429.899 572.318 442.17 571.786C447.488 571.558 452.768 570.76 458.087 570.608C475.866 570.001 486.198 580.409 485.135 603.317ZM451.819 605.064C447.716 605.064 445.475 605.064 443.195 605.064C423.631 604.988 403.991 605.9 384.503 604.57C359.62 602.861 334.927 599.328 309.931 603.545C284.175 607.875 258.38 606.964 232.358 604.532C210.97 602.519 189.317 603.355 167.777 603.089C162.991 603.013 158.318 603.355 158.204 610.231C157.938 626.148 156.228 642.141 157.216 657.982C159.078 687.5 164.7 716.751 159.496 746.496C154.861 773.278 156.342 800.06 159.116 827.032C161.129 846.748 159.952 866.806 160.217 886.712C160.255 889.599 160.217 892.525 160.217 895.944C163.295 895.944 165.878 895.906 168.461 895.944C190.342 896.247 212.376 895.146 234.106 897.235C257.773 899.515 281.135 900.616 304.65 896.931C330.825 892.828 356.923 894.728 383.211 897.273C403.269 899.211 423.631 898.147 443.841 897.767C446.69 897.729 451.667 894.234 451.895 891.955C453.338 878.089 455.769 863.843 454.022 850.243C448.476 807.696 447.868 765.376 454.326 722.905C454.972 718.688 455.048 714.244 454.706 709.989C452.009 675.495 444.829 641.267 451.819 605.064Z" fill="#F5F5F5" fill-opacity="0.05"/>
<path d="M420.216 637.012C410.149 682.18 424.812 726.551 416.037 770.58C414.783 776.848 417.177 783.8 417.177 790.41C417.253 811.304 416.911 832.198 416.987 853.092C417.025 860.043 413.606 861.715 407.262 862.437C382.645 865.286 358.142 864.906 333.639 861.297C329.119 860.613 324.37 861.411 319.736 861.487C299.868 861.905 280 862.437 260.131 862.779C241.251 863.121 222.333 863.273 203.452 863.576C199.881 863.652 196.348 864.07 193.119 864.298C192.435 862.931 191.828 862.285 191.904 861.791C198.932 817.838 186.471 773.467 194.677 729.476C195.779 723.474 193.461 716.94 193.423 710.634C193.347 689.74 193.727 668.846 193.651 647.991C193.613 641.001 197.032 639.405 203.414 638.645C228.373 635.682 253.218 636.214 277.986 640.013C279.316 640.203 280.721 640.583 281.937 640.317C324.826 631.237 368.247 644.496 411.137 637.088C413.416 636.67 415.733 637.012 420.216 637.012ZM226.397 829.007C255.725 829.007 281.519 829.007 307.313 829.007C333.032 829.007 358.788 829.007 385.456 829.007C385.456 822.587 385.532 815.673 385.456 808.759C385.152 788.207 384.848 767.655 384.43 747.103C383.975 722.638 383.405 698.174 382.873 671.923C355.407 671.923 329.613 671.923 303.856 671.923C277.834 671.923 251.812 671.923 225.144 671.923C225.144 678.154 224.878 684.46 225.182 690.69C225.98 705.619 227.917 720.511 227.917 735.44C227.917 765.907 226.967 796.298 226.397 829.007Z" fill="#F5F5F5" fill-opacity="0.05"/>
<path d="M258.492 798.045C258.492 766.552 258.492 735.933 258.492 703.947C290.137 703.947 320.756 703.947 352.856 703.947C352.856 714.128 352.894 724.955 352.856 735.743C352.78 752.952 352.4 770.161 352.742 787.37C352.894 795.272 349.171 797.893 342.068 797.893C324.555 797.893 307.042 798.007 289.529 798.045C279.348 798.045 269.167 798.045 258.492 798.045ZM317.679 762.791C318.401 753.902 319.046 745.811 319.806 736.085C309.853 736.883 301.534 737.529 292.91 738.213C292.15 747.558 291.505 755.65 290.783 765.071C300.888 764.235 308.979 763.551 317.679 762.791Z" fill="#F5F5F5" fill-opacity="0.05"/>
</g>
</g>
<defs>
<linearGradient id="paint0_linear_5_19" x1="195" y1="0" x2="195" y2="844" gradientUnits="userSpaceOnUse">
<stop stop-color="#8C37C3"/>
<stop offset="1" stop-color="#39194E"/>
</linearGradient>
<clipPath id="clip0_5_19">
<rect width="390" height="844" fill="white"/>
</clipPath>
</defs>
</svg>
