<svg width="24" height="25" viewBox="0 0 24 25" fill="none" xmlns="http://www.w3.org/2000/svg">
<path d="M12 1.75C6.06294 1.75 1.25 6.56294 1.25 12.5C1.25 18.4371 6.06294 23.25 12 23.25C17.9371 23.25 22.75 18.4371 22.75 12.5C22.75 6.56294 17.9371 1.75 12 1.75Z" fill="#1ED760"/>
<path fill-rule="evenodd" clip-rule="evenodd" d="M12.0265 9.24169C10.0726 8.99224 8.18874 9.40223 6.59542 10.2986C6.23441 10.5017 5.77712 10.3737 5.57402 10.0127C5.37092 9.65171 5.49893 9.19442 5.85993 8.99132C7.72469 7.94222 9.93194 7.4621 12.2164 7.75377C14.6331 8.06233 16.7488 9.18508 18.3204 10.8105C18.6084 11.1083 18.6004 11.5831 18.3026 11.871C18.0048 12.159 17.53 12.151 17.2421 11.8532C15.8988 10.4639 14.093 9.50554 12.0265 9.24169Z" fill="#19101A"/>
<path fill-rule="evenodd" clip-rule="evenodd" d="M11.5626 12.2068C10.0308 12.0113 8.54297 12.221 7.20446 12.7519C6.81943 12.9046 6.3835 12.7163 6.23077 12.3313C6.07805 11.9463 6.26638 11.5103 6.65141 11.3576C8.21969 10.7355 9.96285 10.4904 11.7525 10.7189C13.6447 10.9605 15.3533 11.7014 16.7604 12.7928C17.0878 13.0466 17.1473 13.5177 16.8935 13.845C16.6396 14.1724 16.1685 14.2319 15.8412 13.9781C14.6399 13.0464 13.1818 12.4135 11.5626 12.2068Z" fill="#19101A"/>
<path fill-rule="evenodd" clip-rule="evenodd" d="M11.0638 15.1674C9.93422 15.0232 8.82908 15.0994 7.79037 15.3619C7.38878 15.4634 6.98096 15.2201 6.87948 14.8185C6.778 14.4169 7.02128 14.0091 7.42287 13.9076C8.6407 13.5999 9.93489 13.5111 11.2538 13.6795C12.6378 13.8562 13.9243 14.3002 15.0666 14.9536C15.4261 15.1593 15.5508 15.6175 15.3451 15.977C15.1395 16.3366 14.6813 16.4613 14.3217 16.2556C13.3474 15.6983 12.2491 15.3187 11.0638 15.1674Z" fill="#19101A"/>
</svg>
