<svg width="20" height="20" viewBox="0 0 20 20" fill="none" xmlns="http://www.w3.org/2000/svg">
<path d="M16.6634 8.85083V15.8333C16.6634 16.2754 16.4878 16.6993 16.1752 17.0118C15.8626 17.3244 15.4387 17.5 14.9967 17.5H5.00337C4.56148 17.4998 4.13777 17.3241 3.82539 17.0115C3.51301 16.699 3.33753 16.2752 3.33753 15.8333V8.85083M6.2517 7.29167L6.66837 2.5M6.2517 7.29167C6.2517 9.71 10 9.71 10 7.29167M6.2517 7.29167C6.2517 9.93833 1.95587 9.39167 2.55753 7.085L3.42837 3.74583C3.52143 3.38919 3.7301 3.07346 4.02172 2.84804C4.31333 2.62262 4.67145 2.50022 5.04003 2.5H14.96C15.3286 2.50022 15.6867 2.62262 15.9783 2.84804C16.27 3.07346 16.4786 3.38919 16.5717 3.74583L17.4425 7.085C18.0442 9.3925 13.7484 9.93833 13.7484 7.29167M10 7.29167V2.5M10 7.29167C10 9.71 13.7484 9.71 13.7484 7.29167M13.7484 7.29167L13.3317 2.5" stroke="#383639" stroke-width="1.5" stroke-linecap="round" stroke-linejoin="round"/>
</svg>
