<svg width="115" height="93" viewBox="0 0 115 93" fill="none" xmlns="http://www.w3.org/2000/svg">
<g clip-path="url(#clip0_120_4881)">
<path d="M49.9177 12.5881L101.06 18.9641C108.316 19.8688 113.448 26.4807 112.546 33.7219L107.489 74.2817C106.584 81.5381 99.9723 86.6704 92.7311 85.7677L41.5891 79.3916C34.346 78.5039 29.1986 71.8901 30.1013 64.6489L35.16 24.074C36.0627 16.8328 42.6765 11.6853 49.9177 12.5881Z" fill="#EDE5F4"/>
<path d="M45.0252 16.1231L48.5778 16.566C49.6965 16.7055 50.5055 17.7275 50.3642 18.8613L49.9213 22.4139C49.7818 23.5325 48.7598 24.3416 47.626 24.2003L44.0734 23.7573C42.9547 23.6179 42.1457 22.5959 42.287 21.4621L42.7299 17.9095C42.8864 16.7776 43.9065 15.9836 45.0252 16.1231Z" fill="#8C37C3" fill-opacity="0.2"/>
<path d="M59.1141 17.8799L62.6667 18.3228C63.7853 18.4623 64.5944 19.4843 64.4531 20.6181L64.0101 24.1707C63.8707 25.2894 62.8487 26.0984 61.7149 25.9571L58.1623 25.5142C57.0436 25.3747 56.2345 24.3527 56.3759 23.2189L56.8188 19.6663C56.9753 18.5344 57.9954 17.7405 59.1141 17.8799Z" fill="#8C37C3" fill-opacity="0.2"/>
<path d="M73.2039 19.6363L76.7565 20.0792C77.8752 20.2187 78.6843 21.2407 78.5429 22.3745L78.1 25.927C77.9605 27.0457 76.9385 27.8548 75.8047 27.7134L72.2521 27.2705C71.1335 27.1311 70.3244 26.1091 70.4657 24.9753L70.9086 21.4227C71.0651 20.2908 72.0852 19.4968 73.2039 19.6363Z" fill="#8C37C3" fill-opacity="0.2"/>
<path d="M87.3084 21.3946L90.861 21.8375C91.9797 21.977 92.7888 22.999 92.6474 24.1328L92.2045 27.6853C92.065 28.804 91.043 29.6131 89.9092 29.4717L86.3566 29.0288C85.2379 28.8894 84.4289 27.8674 84.5702 26.7336L85.0131 23.181C85.1545 22.0472 86.1746 21.2532 87.3084 21.3946Z" fill="#8C37C3" fill-opacity="0.2"/>
<path d="M101.397 23.1514L104.95 23.5943C106.069 23.7338 106.878 24.7558 106.736 25.8896L106.293 29.4422C106.154 30.5609 105.132 31.3699 103.998 31.2286L100.445 30.7857C99.3268 30.6462 98.5177 29.6242 98.6591 28.4904L99.102 24.9378C99.2434 23.804 100.263 23.0101 101.397 23.1514Z" fill="#8C37C3" fill-opacity="0.2"/>
<path d="M38.6619 67.1592L42.2145 67.6021C43.3332 67.7416 44.1423 68.7636 44.0009 69.8974L43.558 73.45C43.4185 74.5687 42.3965 75.3777 41.2627 75.2364L37.7101 74.7935C36.5915 74.654 35.7824 73.632 35.9237 72.4982L36.3685 68.9305C36.5231 67.8137 37.5433 67.0198 38.6619 67.1592Z" fill="#8C37C3" fill-opacity="0.2"/>
<path d="M52.7518 68.9161L56.3044 69.359C57.423 69.4984 58.2321 70.5204 58.0908 71.6543L57.6478 75.2068C57.5084 76.3255 56.4864 77.1346 55.3526 76.9932L51.8 76.5503C50.6813 76.4108 49.8722 75.3888 50.0136 74.255L50.4584 70.6873C50.613 69.5705 51.6331 68.7766 52.7518 68.9161Z" fill="#8C37C3" fill-opacity="0.2"/>
<path d="M66.8406 70.6724L70.3932 71.1153C71.5119 71.2548 72.321 72.2768 72.1796 73.4106L71.7367 76.9632C71.5972 78.0819 70.5752 78.8909 69.4414 78.7496L65.8889 78.3067C64.7702 78.1672 63.9611 77.1452 64.1025 76.0114L64.5473 72.4437C64.7018 71.3269 65.722 70.5329 66.8406 70.6724Z" fill="#8C37C3" fill-opacity="0.2"/>
<path d="M80.9451 72.4307L84.4977 72.8736C85.6164 73.0131 86.4255 74.0351 86.2841 75.1689L85.8412 78.7215C85.7017 79.8402 84.6797 80.6492 83.5459 80.5079L79.9933 80.065C78.8747 79.9255 78.0656 78.9035 78.2069 77.7697L78.6517 74.202C78.7912 73.0833 79.8113 72.2894 80.9451 72.4307Z" fill="#8C37C3" fill-opacity="0.2"/>
<path d="M95.035 74.1875L98.5876 74.6305C99.7062 74.7699 100.515 75.7919 100.374 76.9257L99.931 80.4783C99.7916 81.597 98.7696 82.4061 97.6358 82.2647L94.0832 81.8218C92.9645 81.6823 92.1554 80.6603 92.2968 79.5265L92.7416 75.9588C92.8811 74.8401 93.9012 74.0462 95.035 74.1875Z" fill="#8C37C3" fill-opacity="0.2"/>
<path d="M84.0413 45.0138L69.2403 33.819C65.1993 30.7667 59.35 33.2307 58.7223 38.2648L56.4267 56.6777C55.7991 61.7118 60.8645 65.5365 65.5311 63.5699L82.6277 56.3518C87.2963 54.37 88.0803 48.0812 84.0413 45.0138Z" fill="#8C37C3" fill-opacity="0.2"/>
</g>
<g clip-path="url(#clip1_120_4881)">
<path d="M13.9404 13.5608L65.0563 6.97909C72.3089 6.04524 78.9282 11.168 79.8601 18.4055L85.08 58.9447C86.0138 66.1973 80.891 72.8167 73.6535 73.7486L22.5376 80.3303C15.3021 81.2773 8.6676 76.1565 7.73569 68.9189L2.51391 28.3647C1.582 21.1272 6.70284 14.4927 13.9404 13.5608Z" fill="#EDE6F5"/>
<path d="M10.0837 18.2046L13.6345 17.7474C14.7526 17.6035 15.791 18.3914 15.937 19.5246L16.3942 23.0754C16.5381 24.1935 15.7502 25.2319 14.617 25.3778L11.0662 25.835C9.94812 25.979 8.9097 25.1911 8.76379 24.0579L8.30659 20.5071C8.17579 19.3719 8.96563 18.3486 10.0837 18.2046Z" fill="#8C37C3" fill-opacity="0.2"/>
<path d="M24.1658 16.3912L27.7165 15.934C28.8347 15.79 29.8731 16.5779 30.019 17.7111L30.4762 21.2619C30.6202 22.38 29.8323 23.4184 28.699 23.5643L25.1483 24.0215C24.0302 24.1655 22.9917 23.3776 22.8458 22.2444L22.3886 18.6936C22.2578 17.5584 23.0477 16.5351 24.1658 16.3912Z" fill="#8C37C3" fill-opacity="0.2"/>
<path d="M38.2478 14.5782L41.7986 14.121C42.9167 13.977 43.9551 14.7649 44.101 15.8981L44.5582 19.4489C44.7022 20.567 43.9143 21.6054 42.7811 21.7513L39.2303 22.2085C38.1122 22.3525 37.0738 21.5646 36.9279 20.4314L36.4707 16.8806C36.3398 15.7455 37.1297 14.7221 38.2478 14.5782Z" fill="#8C37C3" fill-opacity="0.2"/>
<path d="M52.3455 12.7627L55.8962 12.3055C57.0143 12.1616 58.0528 12.9495 58.1987 14.0827L58.6559 17.6335C58.7998 18.7516 58.0119 19.79 56.8787 19.9359L53.328 20.3931C52.2098 20.5371 51.1714 19.7492 51.0255 18.616L50.5683 15.0652C50.4224 13.932 51.2122 12.9087 52.3455 12.7627Z" fill="#8C37C3" fill-opacity="0.2"/>
<path d="M66.4275 10.9498L69.9783 10.4926C71.0964 10.3486 72.1348 11.1365 72.2807 12.2697L72.7379 15.8205C72.8819 16.9386 72.094 17.977 70.9608 18.1229L67.41 18.5801C66.2919 18.7241 65.2535 17.9362 65.1075 16.803L64.6503 13.2522C64.5044 12.119 65.2943 11.0957 66.4275 10.9498Z" fill="#8C37C3" fill-opacity="0.2"/>
<path d="M16.6521 69.2149L20.2029 68.7577C21.321 68.6137 22.3594 69.4016 22.5053 70.5349L22.9625 74.0856C23.1065 75.2037 22.3186 76.2421 21.1854 76.3881L17.6346 76.8453C16.5165 76.9892 15.4781 76.2013 15.3321 75.0681L14.873 71.5022C14.7441 70.3822 15.534 69.3589 16.6521 69.2149Z" fill="#8C37C3" fill-opacity="0.2"/>
<path d="M30.7341 67.4014L34.2849 66.9442C35.403 66.8003 36.4414 67.5882 36.5873 68.7214L37.0445 72.2721C37.1885 73.3903 36.4006 74.4287 35.2674 74.5746L31.7166 75.0318C30.5985 75.1758 29.5601 74.3879 29.4142 73.2546L28.955 69.6888C28.8262 68.5687 29.616 67.5454 30.7341 67.4014Z" fill="#8C37C3" fill-opacity="0.2"/>
<path d="M44.8162 65.5884L48.3669 65.1312C49.485 64.9873 50.5235 65.7752 50.6694 66.9084L51.1266 70.4592C51.2705 71.5773 50.4826 72.6157 49.3494 72.7616L45.7987 73.2188C44.6805 73.3628 43.6421 72.5749 43.4962 71.4416L43.0371 67.8758C42.9082 66.7557 43.6981 65.7324 44.8162 65.5884Z" fill="#8C37C3" fill-opacity="0.2"/>
<path d="M58.9138 63.773L62.4646 63.3158C63.5827 63.1718 64.6211 63.9597 64.767 65.093L65.2242 68.6437C65.3682 69.7618 64.5803 70.8003 63.4471 70.9462L59.8963 71.4034C58.7782 71.5473 57.7398 70.7594 57.5939 69.6262L57.1347 66.0603C56.9908 64.9422 57.7806 63.9189 58.9138 63.773Z" fill="#8C37C3" fill-opacity="0.2"/>
<path d="M72.9959 61.96L76.5466 61.5028C77.6647 61.3588 78.7032 62.1467 78.8491 63.28L79.3063 66.8307C79.4502 67.9488 78.6623 68.9873 77.5291 69.1332L73.9783 69.5904C72.8602 69.7343 71.8218 68.9464 71.6759 67.8132L71.2168 64.2473C71.0728 63.1292 71.8626 62.1059 72.9959 61.96Z" fill="#8C37C3" fill-opacity="0.2"/>
<path d="M55.0725 36.4502L37.947 29.3009C33.2725 27.353 28.2226 31.1982 28.8704 36.2297L31.2401 54.6332C31.8879 59.6647 37.7472 62.1052 41.7758 59.0367L56.5316 47.7824C60.5583 44.6988 59.749 38.4132 55.0725 36.4502Z" fill="#8C37C3" fill-opacity="0.2"/>
</g>
<defs>
<clipPath id="clip0_120_4881">
<rect width="78" height="78" fill="white" transform="translate(37.4551 5.66113) rotate(7.10659)"/>
</clipPath>
<clipPath id="clip1_120_4881">
<rect width="78" height="78" fill="white" transform="translate(0.144531 9.96094) rotate(-7.33706)"/>
</clipPath>
</defs>
</svg>
