<svg width="14" height="12" viewBox="0 0 14 12" fill="none" xmlns="http://www.w3.org/2000/svg">
<path d="M13.7707 7.73247L13.6724 7.68212C12.9862 7.33039 12.5114 6.8289 12.1785 6.10386L12.1308 6.00009C11.9862 5.67699 11.5372 5.67711 11.3927 6.00009L11.345 6.10392C11.0121 6.82893 10.5374 7.33042 9.851 7.68215L9.75277 7.7325C9.44692 7.88521 9.44706 8.35963 9.7528 8.51223L9.85106 8.56258C10.5374 8.91431 11.0121 9.4158 11.345 10.1408L11.3927 10.2446C11.5372 10.5677 11.9864 10.5676 12.1308 10.2446L12.1785 10.1408C12.5114 9.4158 12.9862 8.91431 13.6724 8.56261L13.7707 8.51225C14.0766 8.3596 14.0765 7.88509 13.7707 7.73247Z" fill="#FFD700"/>
<path d="M10.3096 1.07178C10.9308 1.10048 11.4953 1.32114 11.9307 1.68994L12.1094 1.85693C12.8075 2.57978 13.0145 3.62968 12.7412 4.70264C11.9195 4.12471 10.6818 4.36065 10.2012 5.4126L10.1533 5.51709C9.94681 5.9668 9.68105 6.24462 9.26562 6.45752L9.16895 6.50732C7.88698 7.15927 7.88618 9.08555 9.16895 9.73779V9.73682L9.26562 9.7876C9.32215 9.81657 9.37546 9.84638 9.42578 9.87744C9.16022 10.1604 8.91481 10.404 8.7002 10.5952L8.41797 10.8315L8.41113 10.8374L8.4082 10.8394C7.95289 11.1965 7.46705 11.529 6.97266 11.4976H6.96289C6.62103 11.4825 6.11195 11.2426 5.48438 10.7378C4.87688 10.2491 4.2291 9.56976 3.62012 8.80518C3.10554 8.15907 2.62596 7.46078 2.22754 6.78174C2.95977 6.93699 3.77817 6.60954 4.14746 5.79932L4.14648 5.79834L4.20312 5.67725C4.4812 5.07182 4.84492 4.69113 5.40723 4.40283L5.52441 4.34326C6.12188 4.03715 6.49012 3.39973 6.49023 2.72803C6.49023 2.67432 6.48608 2.62098 6.48145 2.56787C6.51225 2.61641 6.54194 2.66411 6.56934 2.71143L7.00195 3.45947L7.43457 2.7124C7.54961 2.51377 7.69384 2.30107 7.87207 2.09814C8.50326 1.37963 9.33679 1.02677 10.3096 1.07178Z" stroke="white"/>
<path d="M2.15863 5.09078L2.21526 5.21408C2.35982 5.53715 2.80886 5.53704 2.95336 5.21408L3.01003 5.09072C3.41356 4.212 3.98892 3.60419 4.82069 3.1779L4.93743 3.1181C5.07882 3.04568 5.1686 2.89424 5.16862 2.72824C5.16862 2.56221 5.07887 2.4108 4.93751 2.33832L4.82071 2.27846C3.98892 1.85217 3.41356 1.24437 3.01 0.365609L2.95336 0.242281C2.80881 -0.080818 2.35974 -0.0807024 2.21526 0.242281L2.15863 0.365638C1.75506 1.24437 1.17968 1.8522 0.347802 2.27849L0.231084 2.33835C0.0897262 2.41083 0 2.56224 0 2.72824C2.73472e-05 2.89424 0.0897809 3.04562 0.231166 3.11807L0.347884 3.17787C1.1797 3.60419 1.75506 4.21203 2.15863 5.09078Z" fill="#FFD700"/>
</svg>
