<svg width="14" height="14" viewBox="0 0 14 14" fill="none" xmlns="http://www.w3.org/2000/svg">
<path d="M7.00098 12.333C4.05548 12.333 1.66717 9.94546 1.66699 7C1.66699 4.05439 4.05537 1.66601 7.00098 1.66602C9.94644 1.66619 12.334 4.0545 12.334 7C12.3338 9.94535 9.94633 12.3328 7.00098 12.333Z" stroke="#B6B1B7"/>
<path d="M7.00065 5.97884C6.76148 5.97884 6.56315 6.17717 6.56315 6.41634L6.56315 9.33301C6.56315 9.57217 6.76148 9.77051 7.00065 9.77051C7.23982 9.77051 7.43815 9.57217 7.43815 9.33301L7.43815 6.41634C7.43815 6.17717 7.23982 5.97884 7.00065 5.97884ZM6.46398 4.88859C6.49315 4.95859 6.53398 5.02276 6.58648 5.08109C6.64482 5.13359 6.70898 5.17442 6.77898 5.20359C6.921 5.26193 7.0803 5.26193 7.22232 5.20359C7.29232 5.17442 7.35648 5.13359 7.41482 5.08109C7.46732 5.02276 7.50815 4.95859 7.53732 4.88859C7.56648 4.81859 7.58398 4.74276 7.58398 4.66692C7.58398 4.59109 7.56648 4.51526 7.53732 4.44526C7.50815 4.36942 7.46732 4.31109 7.41482 4.25276C7.35648 4.20026 7.29232 4.15942 7.22232 4.13026C7.15232 4.10109 7.07648 4.08359 7.00065 4.08359C6.92482 4.08359 6.84898 4.10109 6.77898 4.13026C6.70898 4.15942 6.64482 4.20026 6.58648 4.25276C6.53398 4.31109 6.49315 4.36942 6.46398 4.44526C6.43482 4.51526 6.41732 4.59109 6.41732 4.66692C6.41732 4.74276 6.43482 4.81859 6.46398 4.88859Z" fill="#B6B1B7"/>
</svg>
